<?xml version="1.0" standalone="no"?>
<!DOCTYPE svg PUBLIC "-//W3C//DTD SVG 1.1//EN" "http://www.w3.org/Graphics/SVG/1.1/DTD/svg11.dtd" >
<svg xmlns="http://www.w3.org/2000/svg">
<metadata>Generated by IcoMoon</metadata>
<defs>
<font id="vzicons" horiz-adv-x="512">
<font-face units-per-em="512" ascent="480" descent="-32" />
<missing-glyph horiz-adv-x="512" />
<glyph unicode="&#x20;" d="" horiz-adv-x="256" />
<glyph unicode="&#xe600;" d="M443.607 286.937c0 103.611-83.976 187.726-187.613 187.726-103.605 0-187.601-83.937-187.601-187.548 0-34.099 9.12-66.008 25.031-93.572l162.569-208.399 163.27 208.882h-0.139c15.555 26.453 24.483 59.196 24.483 92.911zM281.157 141.107c-6.356-6.356-14.808-9.848-23.801-9.848-9.020 0-17.492 3.512-23.855 9.887-6.356 6.375-9.867 14.847-9.867 23.841 0 9.007 3.518 17.479 9.893 23.834s14.827 9.848 23.815 9.848c9.007 0 17.499-3.505 23.848-9.9 6.368-6.375 9.873-14.827 9.861-23.834 0.007-9-3.512-17.466-9.894-23.828zM325.215 212.736c-3.055-1.594-6.613-2.467-10.178-2.467-8.247 0-15.74 4.477-19.569 11.679-6.13 11.441-24.608 18.571-37.703 18.571-13.537 0-32.029-7.175-38.172-18.736-3.783-7.235-11.303-11.765-19.602-11.765-3.505 0-7.011 0.84-10.125 2.447-5.317 2.724-9.232 7.348-11.018 13.002-1.766 5.595-1.224 11.54 1.535 16.725 13.788 26.089 47.398 42.299 77.204 42.299 29.714-0.027 63.224-16.13 77.005-42.015 1.7-3.076 2.592-6.573 2.592-10.257 0.007-8.273-4.589-15.74-11.971-19.483zM365.557 278.823c-2.983-1.601-6.329-2.433-9.668-2.433-7.559 0-14.469 4.147-18.034 10.807-13.253 24.733-51.941 40.103-79.935 40.109-28.292 0-67.065-15.528-80.26-40.513-3.552-6.739-10.482-10.925-18.12-10.925-3.287 0-6.567 0.807-9.49 2.341-9.966 5.271-13.803 17.664-8.604 27.644 20.316 38.464 72.965 62.331 116.428 62.331 43.212-0.026 95.708-23.663 116.057-61.676 1.58-2.87 2.421-6.163 2.421-9.668-0.033-7.559-4.16-14.45-10.793-18.015z" />
<glyph unicode="&#xe601;" d="M451.688 478.4h-391.377c-27.029 0-52.312-25.303-52.312-52.325v-391.364c0-27.022 25.283-52.312 52.312-52.312h391.377c27.009 0 52.312 25.289 52.312 52.312v391.37c0 27.023-25.303 52.319-52.312 52.319zM259.981 94.827c-2.063 0-4.073 0-6.065 0-13.875 0-24.085 13.808-24.085 29.595 0 22.452 22.327 34.832 39.283 26.077 4.477-2.269 9.192-8.365 11.884-13.325 9.861-18.676-4.014-42.345-21.017-42.345zM333.753 167.031c-6.111-6.289-16.13-6.289-22.188 0-30.726 31.962-80.405 31.962-111.137 0-6.065-6.289-16.077-6.289-22.168 0-6.104 6.481-6.104 16.752 0 23.252 42.868 44.508 112.618 44.508 155.493 0 6.098-6.501 6.098-16.772 0-23.252zM378.142 213.232c-6.098-6.263-16.070-6.263-22.207 0-55.208 57.371-144.654 57.371-199.875 0-6.163-6.263-16.090-6.263-22.188 0-6.197 6.421-6.197 16.686 0 23.207 67.397 70.048 176.861 70.048 244.276 0 6.171-6.514 6.171-16.785-0.007-23.207zM422.61 259.479c-6.19-6.323-16.057-6.323-22.235 0-79.757 82.904-209.014 82.904-288.764 0-6.191-6.323-16.057-6.323-22.254 0-6.137 6.329-6.137 16.665 0 23.060 92.037 95.715 241.248 95.715 333.253 0 6.137-6.395 6.137-16.732 0-23.060z" />
<glyph unicode="&#xe602;" d="M290.204 408.762c-6.792 0-13.108 4.325-15.356 11.144l-10.033 30.705c-2.777 8.485 1.852 17.599 10.33 20.375 8.471 2.764 17.605-1.852 20.382-10.33l10.046-30.713c2.771-8.471-1.852-17.598-10.331-20.375-1.68-0.549-3.373-0.807-5.039-0.807zM457.125 324.944c-6.779 0-13.12 4.325-15.349 11.137-2.771 8.478 1.852 17.599 10.337 20.369l30.712 10.039c8.478 2.784 17.591-1.839 20.369-10.324s-1.839-17.604-10.331-20.382l-30.726-10.039c-1.653-0.543-3.34-0.8-5.013-0.8zM391.017 401.414c-2.467 0-4.953 0.563-7.301 1.76-7.943 4.028-11.144 13.749-7.103 21.705l14.628 28.827c4.021 7.956 13.749 11.137 21.692 7.096 7.969-4.035 11.151-13.756 7.103-21.719l-14.608-28.815c-2.837-5.608-8.531-8.856-14.411-8.856zM213.701 342.655c-2.46 0-4.947 0.563-7.294 1.76l-28.815 14.615c-7.943 4.034-11.124 13.756-7.083 21.705 4.035 7.956 13.762 11.144 21.719 7.103l28.794-14.622c7.956-4.035 11.15-13.756 7.109-21.712-2.857-5.615-8.524-8.849-14.43-8.849zM478.585 209.495c-2.454 0-4.947 0.555-7.301 1.752l-28.801 14.623c-7.956 4.048-11.137 13.769-7.083 21.719 4.034 7.956 13.756 11.15 21.705 7.103l28.801-14.623c7.956-4.035 11.144-13.762 7.096-21.725-2.851-5.621-8.517-8.849-14.417-8.849zM426.029 163.916l-11.038 1.726-1.977 11.005c-7.427 41.519-43.423 71.663-85.61 71.663-14.384 0-28.107-3.419-40.778-10.165l-11.031-5.859-8.161 9.437c-19.986 23.074-48.945 36.314-79.406 36.314-57.040 0-103.141-44.653-104.96-101.66l-0.364-11.493-11.084-3.101c-37.465-10.462-63.62-44.911-63.62-83.764 0-44.448 33.258-82.594 77.396-87.468l5.159-1.534h321.971c48.012 0 87.077 40.017 87.077 88.036 0 43.106-30.944 80.207-73.573 86.867zM282.877 270.933c14.093 5.727 29.284 8.709 44.514 8.709 32.365 0 61.974-13.088 83.526-34.581 16.394 23.881 21.963 54.811 12.248 84.466-16.587 50.492-70.941 77.971-121.401 61.411-40.116-13.173-65.624-50.221-66.14-90.212 17.512-6.52 33.629-16.592 47.252-29.793z" />
<glyph unicode="&#xe603;" d="M326.524 219.66c0 36.717-29.773 78.54-66.484 78.54-36.724 0-66.484-41.823-66.484-78.54s29.767-78.54 66.484-78.54c36.711 0 66.484 41.823 66.484 78.54zM265.781 376.423c-42.332 0-84.71-8.941-121.764-24.317l-33.596 33.609c-7.44 7.44-19.516 7.44-26.956 0s-7.44-19.509 0-26.949l24.621-24.621c-11.493-6.845-22.088-14.391-31.566-22.525-0.013 0.013-0.026 0.026-0.040 0.046l-35.944 35.93c-7.44 7.44-19.516 7.44-26.956 0s-7.44-19.509 0-26.949l35.937-35.936c0.297-0.298 0.648-0.509 0.959-0.781-14.489-19.615-22.916-41.36-22.916-64.275 0-86.575 119.338-156.756 238.219-156.756s238.219 70.18 238.219 156.756c0 86.582-119.337 156.769-238.219 156.769zM265.781 97.333c-98.003 0-203.77 56.022-203.77 122.32 0 66.312 105.761 122.334 203.77 122.334s203.784-56.021 203.784-122.334c0-66.299-105.774-122.32-203.784-122.32z" />
<glyph unicode="&#xe604;" d="M80.747 296.732v11.289c0 6.594-8.816 5.046-14.767 5.046h-53.714c-5.992 0-4.265 1.554-4.265-5.046v-155.241c0-6.613-1.726-11.659 4.265-11.659h53.72c5.945 0 14.761 5.046 14.761 11.659v11.269l158.065-140.672c5.463-5.469 13.881-8.207 20.495-8.207v430.462c-6.613 0-15.032-2.731-20.495-8.22l-158.065-140.679zM422.577 426.452c-10.164 10.159-26.579 10.159-36.757 0-10.144-10.144-10.144-26.592 0-36.743 42.55-42.57 65.995-99.141 65.995-159.309 0-60.201-23.444-116.745-65.961-159.296-10.144-10.171-10.144-26.619 0.026-36.771 5.046-5.072 11.712-7.605 18.325-7.605 6.68 0 13.325 2.539 18.411 7.625 52.332 52.377 81.185 121.99 81.185 196.046 0.007 74.063-28.841 143.668-81.225 196.052zM346.279 334.177c-10.959 10.905-28.668 10.905-39.587 0-10.912-10.939-10.912-28.656 0-39.581 17.175-17.161 26.632-39.952 26.632-64.209 0-24.219-9.464-47.028-26.632-64.183-10.912-10.945-10.885-28.668 0.033-39.581 5.489-5.449 12.632-8.175 19.767-8.175 7.175 0 14.351 2.724 19.82 8.207 27.697 27.723 42.94 64.599 42.94 103.737 0 39.184-15.244 76.040-42.974 103.783z" />
<glyph unicode="&#xe605;" d="M160.325 301.778c-20.276 0-36.77-16.494-36.77-36.737 0-20.303 16.487-36.809 36.77-36.809s36.797 16.507 36.797 36.81c0 20.243-16.52 36.737-36.797 36.737zM354.049 299.813c-20.243 0-36.764-16.481-36.764-36.776 0-20.264 16.52-36.751 36.764-36.751 20.316 0 36.81 16.481 36.81 36.751 0.007 20.296-16.493 36.776-36.81 36.776zM471.582 438.72h-431.13c-27.141 0-32.452-23.636-32.452-34.217v-266.908c0-10.541 6.078-29.541 32.452-29.541h272.959l-3.168-81.298 94.029 81.298h67.31c27.498 0 32.418 19 32.418 29.541v266.908c0 27.141-21.844 34.217-32.418 34.217zM353.547 194.027h-194.657c-38.807 0-70.406 30.878-70.406 69.685 0 38.814 31.592 70.042 70.406 70.042s70.352-30.639 70.352-69.46c0-14.040-4.16-30.58-11.296-37.193h76.543c-7.129 6.613-11.315 22.988-11.315 37.028 0 38.813 31.559 69.837 70.373 69.837 38.788 0 70.399-31.155 70.399-69.982 0-38.807-31.612-69.956-70.399-69.956z" />
<glyph unicode="&#xe606;" d="M255.993-14.293c135.151 0 244.7 109.536 244.7 244.693 0 135.123-109.549 244.693-244.7 244.693s-244.687-109.57-244.687-244.693c0-135.156 109.537-244.693 244.687-244.693zM134.784 258.044l95.576 111.111c14.1 16.276 37.147 16.62 51.247 0.337l95.563-111.627c14.127-16.282 8.009-30.772-13.511-30.772h-51.445v-109.193c0-21.52-14.675-42.913-36.208-42.913h-39.151c-21.526 0-37.068 21.394-37.068 42.913v109.193h-51.465c-21.526 0-27.63 14.661-13.537 30.951z" />
<glyph unicode="&#xe607;" d="M255.993 475.093c-135.137 0-244.687-109.557-244.687-244.693 0-135.144 109.549-244.693 244.687-244.693 135.151 0 244.7 109.549 244.7 244.693 0 135.137-109.549 244.693-244.7 244.693zM380.238 180.8h-248.47c-24.84 0-45.169 21.44-45.169 46.287 0 24.839 20.329 46.3 45.169 46.3h248.47c24.846 0 45.169-21.453 45.169-46.293s-20.349-46.293-45.169-46.293z" />
<glyph unicode="&#xe608;" d="M365.12 68.373c0-10.959-8.882-19.84-19.84-19.84h-171.947c-10.959 0-19.84 8.882-19.84 19.84v0c0 10.959 8.881 19.84 19.84 19.84h171.947c10.959 0 19.84-8.882 19.84-19.84v0zM8 405.653v-277.76h496v277.76h-496zM227.728 376.687c15.773 0 28.556-12.777 28.556-28.549s-12.791-28.557-28.556-28.557c-15.767 0-28.556 12.791-28.556 28.557-0.007 15.772 12.784 28.549 28.556 28.549zM199.813 177.275l0.093 0.132-86.715-0.132 85.888 126.467 43.72-63.17 65.022 95.735 109.854-158.72-217.863-0.311z" />
<glyph unicode="&#xe609;" d="M365.12 68.373c0-10.959-8.882-19.84-19.84-19.84h-171.947c-10.959 0-19.84 8.882-19.84 19.84v0c0 10.959 8.881 19.84 19.84 19.84h171.947c10.959 0 19.84-8.882 19.84-19.84v0zM8 405.653v-277.76h496v277.76h-496zM123.568 326.293h-25.877l-23.001-119.040h72.436l4.312 19.84h-46.565zM170.688 207.253h25.885l23.001 119.040h-25.885zM292.036 269.935c-5.939-12.585-11.685-23.001-16.183-36.228h-0.364c-0.721 13.227-1.627 23.101-2.884 36.049l-5.384 56.537h-26.791l15.105-119.040h30.031l62.536 119.040h-28.947l-27.121-56.359zM348.315 207.253h74.413l4.133 19.84h-48.351l5.568 33.067h42.96l4.319 19.84h-43.324l5.039 26.453h45.659l4.312 19.84h-71.721z" />
<glyph unicode="&#xe60a;" d="M365.12 68.373c0-10.959-8.882-19.84-19.84-19.84h-171.947c-10.959 0-19.84 8.882-19.84 19.84v0c0 10.959 8.881 19.84 19.84 19.84h171.947c10.959 0 19.84-8.882 19.84-19.84v0zM8 405.653v-277.76h496v277.76h-496zM228.012 313.067h-48.065v-107.904c0-9.635-10.191-17.466-19.84-17.466-9.636 0-19.84 7.83-19.84 17.466v107.904h-34.489c-9.635 0-17.453 6.891-17.453 16.533s7.817 16.533 17.453 16.533h122.228c9.649 0 17.465-6.891 17.465-16.533s-7.81-16.533-17.459-16.533zM439.587 322.927l-65.485-123.98c-2.262-4.272-5.675-7.407-9.51-9.298-0.113-0.060-0.172-0.139-0.284-0.192-0.159-0.092-0.37-0.132-0.529-0.205-0.529-0.225-1.051-0.43-1.58-0.622-0.748-0.257-1.514-0.476-2.288-0.635-0.364-0.067-0.707-0.106-1.077-0.152-0.688-0.086-1.382-0.139-2.070-0.139s-1.382 0.060-2.063 0.139c-0.364 0.060-0.721 0.099-1.072 0.152-0.774 0.152-1.534 0.377-2.288 0.635-0.543 0.178-1.058 0.397-1.587 0.622-0.165 0.086-0.357 0.125-0.529 0.205-0.106 0.053-0.178 0.139-0.284 0.192-3.836 1.892-7.262 5.039-9.517 9.298l-65.498 123.98c-5.159 9.781-2.38 21.387 6.197 25.924 8.591 4.536 19.728 0.278 24.906-9.496l51.743-97.97 51.756 97.97c5.159 9.781 16.315 14.034 24.892 9.496 8.558-4.536 11.336-16.143 6.171-25.924z" />
<glyph unicode="&#xe60b;" d="M365.12 68.373c0-10.959-8.882-19.84-19.84-19.84h-171.947c-10.959 0-19.84 8.882-19.84 19.84v0c0 10.959 8.881 19.84 19.84 19.84h171.947c10.959 0 19.84-8.882 19.84-19.84v0zM8 405.653v-277.76h496v277.76h-496zM464.32 167.573h-416.64v198.4h416.64v-198.4z" />
<glyph unicode="&#xe60c;" d="M368.863 230.4c0-23.444-7.195-45.249-19.483-63.316l66.245-66.252c8.756 10.76 16.546 22.333 23.008 34.733 40.553 24.992 65.367 58.31 65.367 94.836 0 36.532-24.82 69.836-65.373 94.835-7.036 13.511-15.587 26.096-25.329 37.649l-66.094-66.1c13.603-18.643 21.659-41.584 21.659-66.384zM449.493 300.713c25.211-20.084 39.952-44.289 39.952-70.313 0-26.031-14.741-50.222-39.952-70.307 7.989 21.943 12.361 45.619 12.361 70.307s-4.372 48.364-12.361 70.313zM192.677 323.787c18.067 12.287 39.865 19.489 63.323 19.489s45.248-7.195 63.316-19.489l66.245 66.245c-10.767 8.743-22.327 16.54-34.72 23.001-24.998 40.553-58.303 65.367-94.841 65.367-36.532 0-69.844-24.807-94.849-65.373-12.387-6.461-23.953-14.252-34.72-23.001l66.246-66.239zM256 463.844c26.031 0 50.235-14.741 70.313-39.957-21.95 8.002-45.625 12.38-70.313 12.38s-48.356-4.379-70.32-12.38c20.084 25.224 44.29 39.957 70.32 39.957zM143.124 230.4c0 24.8 8.061 47.735 21.665 66.384l-66.1 66.087c-9.735-11.54-18.279-24.119-25.316-37.636-40.572-24.985-65.373-58.297-65.373-94.835 0-36.526 24.8-69.844 65.373-94.836 6.475-12.4 14.245-23.96 23.008-34.72l66.225 66.239c-12.287 18.067-19.483 39.858-19.483 63.316zM62.507 160.093c-25.211 20.072-39.965 44.276-39.965 70.307s14.748 50.235 39.977 70.32c-8.008-21.95-12.387-45.639-12.387-70.32s4.371-48.357 12.373-70.307zM322.378 139.195c-18.637-13.603-41.579-21.659-66.379-21.659s-47.742 8.062-66.391 21.659l-66.094-66.094c11.547-9.741 24.132-18.279 37.637-25.316 25.005-40.572 58.316-65.387 94.849-65.387 36.539 0 69.844 24.813 94.841 65.373 13.505 7.036 26.096 15.575 37.63 25.316l-66.094 66.107zM256-3.044c-26.030 0-50.235 14.741-70.32 39.952 21.956-7.995 45.632-12.373 70.32-12.373 24.681 0 48.356 4.378 70.313 12.373-20.079-25.211-44.283-39.952-70.313-39.952z" />
<glyph unicode="&#xe60d;" d="M256 475.093c-135.156 0-244.693-109.57-244.693-244.693 0-135.157 109.537-244.693 244.693-244.693 135.15 0 244.693 109.536 244.693 244.693 0 135.123-109.543 244.693-244.693 244.693zM351.893 147.125c0-6.971-7.387-12.618-16.5-12.618h-158.786c-9.113 0-16.5 5.648-16.5 12.618v166.551c0 6.97 7.387 12.618 16.5 12.618h158.786c9.113 0 16.5-5.648 16.5-12.618v-166.551z" />
<glyph unicode="&#xe60e;" d="M479.868 257.264l-112.149-81.152 42.815-131.659c14.417-44.363-4.649-58.164-42.379-30.726l-112.162 81.49-112.123-81.45c-37.749-27.432-56.822-13.531-42.404 30.837l42.835 131.83-112.156 80.822c-37.722 27.412-30.441 49.197 16.216 49.197h138.615l42.815 132.459c14.404 44.382 38.013 44.065 52.411-0.324l42.834-132.135h138.576c46.677 0 53.965-21.777 16.255-49.189z" />
<glyph unicode="&#xe60f;" d="M395.879 349.149l8.69-11.779c2.408-3.248 6.872-3.856 9.986-1.363l35.765 28.907c3.101 2.507 3.683 7.188 1.269 10.429l-8.709 11.792c-2.394 3.24-6.865 3.849-9.966 1.329l-35.759-28.893c-3.122-2.507-3.69-7.175-1.276-10.423zM360.808 382.824l11.322-9.021c0.721-0.563 1.514-0.933 2.334-1.177 0.298-0.092 0.589-0.106 0.887-0.152 0.37-0.060 0.721-0.185 1.098-0.185 0.139 0 0.257 0.086 0.404 0.093 0.695 0.040 1.342 0.231 1.991 0.476 0.304 0.119 0.608 0.159 0.887 0.311 0.899 0.489 1.733 1.138 2.387 2.037l27.399 37.591c2.368 3.273 1.772 7.936-1.356 10.442l-11.329 9.013c-0.714 0.582-1.527 0.952-2.354 1.204-0.245 0.072-0.476 0.079-0.728 0.125-0.411 0.072-0.813 0.205-1.224 0.205-0.146 0-0.284-0.092-0.43-0.106-0.668-0.039-1.289-0.231-1.925-0.463-0.311-0.119-0.622-0.165-0.925-0.324-0.899-0.489-1.726-1.144-2.38-2.043l-27.392-37.571c-2.394-3.3-1.779-7.956 1.336-10.455zM318.608 405.885l13.154-5.972c0.887-0.364 1.786-0.873 2.699-0.873 0.020 0 0.033 0 0.060 0 0.053 0 0.099 0.337 0.146 0.337 0.774 0.027 1.534 0.371 2.262 0.648 0.225 0.092 0.437 0.284 0.661 0.404 0.543 0.278 1.031 0.668 1.495 1.084 0.192 0.172 0.384 0.344 0.563 0.543 0.568 0.642 1.077 1.369 1.416 2.223l17.161 43.707c1.488 3.809-0.264 8.141-3.882 9.702l-13.161 6.296c-0.899 0.39-1.825 1.19-2.712 1.19-0.007 0-0.013 0-0.026 0-0.139 0-0.257-0.681-0.411-0.688-0.688-0.047-1.363-0.503-2.004-0.754-0.252-0.099-0.476-0.383-0.721-0.516-0.522-0.272-1.005-0.688-1.455-1.091-0.192-0.172-0.39-0.371-0.563-0.563-0.575-0.642-1.077-1.383-1.416-2.242l-17.155-43.728c-1.488-3.809 0.252-8.147 3.889-9.708zM272.13 416.731l14.113-1.899c0.324-0.046 0.628-0.059 0.933-0.059 0.37 0 0.688 0.139 1.051 0.198 0.39 0.067 0.774 0.092 1.151 0.225 0.476 0.165 0.899 0.429 1.336 0.694 0.317 0.205 0.661 0.357 0.952 0.602 0.416 0.364 0.721 0.813 1.058 1.263 0.205 0.285 0.457 0.516 0.628 0.827 0.423 0.814 0.74 1.707 0.86 2.685l5.753 46.856c0.522 4.081-2.248 7.804-6.157 8.327l-14.106 1.885c-0.304 0.046-0.628 0.067-0.925 0.067-0.351 0-0.668-0.139-1.012-0.192-0.411-0.067-0.82-0.093-1.211-0.232-0.45-0.159-0.833-0.41-1.243-0.648-0.357-0.219-0.728-0.384-1.045-0.655-0.384-0.331-0.661-0.748-0.966-1.157-0.238-0.311-0.516-0.568-0.701-0.919-0.43-0.807-0.74-1.7-0.86-2.665l-5.753-46.875c-0.516-4.1 2.262-7.817 6.144-8.327zM224.567 414.621l14.107 1.977c3.895 0.549 6.626 4.299 6.097 8.385l-6.044 46.822c-0.536 4.087-4.113 6.924-8.029 6.382l-14.1-2.004c-3.882-0.549-6.613-4.279-6.097-8.359l6.058-46.816c0.516-4.080 4.113-6.951 8.008-6.388zM169.821 403.709c0.344-0.853 0.846-1.567 1.416-2.203 0.185-0.212 0.397-0.37 0.595-0.555 0.429-0.377 0.893-0.695 1.388-0.952 0.272-0.139 0.529-0.285 0.8-0.391 0.589-0.212 1.203-0.331 1.832-0.383 1.091-0.086 2.196 0 3.274 0.469l13.121 5.734c3.637 1.587 5.363 5.945 3.843 9.755l-17.44 43.595c-0.337 0.853-0.853 1.574-1.435 2.209-0.165 0.185-0.344 0.331-0.529 0.496-0.47 0.416-0.972 0.767-1.528 1.045-0.212 0.113-0.417 0.225-0.642 0.311-0.74 0.277-1.501 1.375-2.308 1.395-0.033 0.013-0.072 0.939-0.113 0.939 0 0 0 0-0.007 0-0.925 0-1.839-1.098-2.757-1.488l-13.135-6.197c-3.624-1.601-5.324-6.163-3.796-9.959l17.419-43.82zM128.939 374.339c2.434-3.233 6.898-3.856 10-1.336l11.282 9.106c3.101 2.513 3.684 7.183 1.263 10.455l-27.617 37.365c-2.413 3.28-6.871 3.849-9.999 1.349l-11.256-9.093c-3.115-2.526-3.683-7.195-1.269-10.462l27.597-37.385zM96.745 334.951c3.128-2.5 7.592-1.879 9.973 1.382l8.624 11.845c2.394 3.267 1.785 7.949-1.349 10.442l-35.944 28.636c-3.121 2.5-7.585 1.872-9.966-1.402l-8.63-11.844c-2.388-3.267-1.785-7.949 1.356-10.442l35.937-28.616zM33.593 306.096l41.803-17.956c3.644-1.554 7.811 0.258 9.299 4.067l5.409 13.769c1.475 3.796-0.251 8.141-3.895 9.715l-41.809 17.935c-3.624 1.555-7.791-0.277-9.279-4.060l-5.41-13.769c-1.495-3.809 0.238-8.161 3.883-9.702zM21.511 243.191l44.825-6.005c3.901-0.536 7.48 2.348 7.969 6.422l1.825 14.774c0.489 4.074-2.255 7.804-6.163 8.339l-44.812 5.991c-3.909 0.529-7.466-2.328-7.969-6.428l-1.806-14.767c-0.503-4.081 2.255-7.81 6.13-8.327zM76.335 193.874l-1.918 14.735c-0.132 0.992-0.443 1.892-0.892 2.704-0.132 0.245-0.331 0.411-0.489 0.635-0.364 0.529-0.74 1.038-1.224 1.449-0.245 0.205-0.535 0.324-0.793 0.489-0.489 0.311-0.966 0.608-1.514 0.787-0.331 0.113-0.674 0.139-1.019 0.192-0.391 0.067-0.748 0.212-1.144 0.212-0.311 0-0.628-0.033-0.939-0.067l-44.772-6.342c-3.889-0.549-6.633-4.299-6.13-8.373l1.931-14.741c0.125-0.979 0.436-1.872 0.88-2.672 0.152-0.284 0.384-0.489 0.569-0.74 0.364-0.483 0.707-0.959 1.151-1.342 0.258-0.219 0.563-0.351 0.84-0.536 0.463-0.298 0.939-0.575 1.468-0.753 0.324-0.106 0.655-0.132 0.985-0.192 0.39-0.067 0.747-0.212 1.151-0.212 0.331 0 0.648 0.033 0.965 0.079l44.792 6.309c3.888 0.555 6.613 4.292 6.104 8.379zM90.588 146.351l-5.495 13.729c-0.337 0.866-0.847 1.574-1.421 2.216-0.172 0.185-0.364 0.351-0.549 0.509-0.476 0.423-0.979 0.767-1.528 1.058-0.205 0.106-0.391 0.205-0.596 0.291-0.787 0.304-1.6 0.516-2.447 0.516-0.919 0-1.859-0.192-2.764-0.596l-41.684-18.233c-3.624-1.587-5.337-5.932-3.843-9.721l5.509-13.723c0.344-0.86 0.846-1.567 1.422-2.209 0.185-0.199 0.391-0.364 0.581-0.543 0.45-0.397 0.925-0.721 1.449-0.999 0.245-0.125 0.456-1.825 0.701-1.918 0.748-0.277 1.528-2.063 2.334-2.063 0.013 0 0.039 0 0.059 0 0.007 0 0.013 0 0.026 0 0.907 0 1.825 1.759 2.724 2.169l41.691 19.007c3.644 1.574 5.371 6.712 3.829 10.509zM116.135 104.337l-8.716 11.765c-2.394 3.267-6.865 3.875-9.973 1.336l-35.745-28.873c-3.128-2.513-3.703-7.188-1.303-10.442l8.703-11.779c2.4-3.26 6.877-3.849 9.98-1.342l35.745 28.9c3.121 2.5 3.697 7.183 1.309 10.436zM415.243 118.555c-3.128 2.473-7.586 1.839-9.986-1.428l-8.637-11.837c-2.354-3.253-1.752-7.923 1.356-10.442l35.95-28.629c3.122-2.493 7.579-1.832 9.966 1.396l8.644 11.851c2.368 3.274 1.786 7.956-1.342 10.423l-35.95 28.668zM478.406 147.376l-41.796 17.962c-3.644 1.541-7.81-0.257-9.312-4.060l-5.389-13.783c-1.495-3.796 0.245-8.154 3.875-9.715l41.803-17.935c3.644-1.548 7.81 0.252 9.298 4.048l5.403 13.769c1.481 3.829-0.245 8.168-3.882 9.715zM490.476 210.289l-44.825 6.005c-3.909 0.536-7.466-2.348-7.983-6.428l-1.792-14.767c-0.503-4.067 2.248-7.81 6.157-8.332l44.805-6.012c3.901-0.522 7.466 2.361 7.969 6.448l1.819 14.755c0.476 4.060-2.241 7.81-6.151 8.332zM435.658 259.597l1.904-14.728c0.536-4.073 4.113-6.944 8.029-6.395l44.752 6.335c3.901 0.555 6.633 4.292 6.117 8.379l-1.904 14.741c-0.543 4.081-4.107 6.924-8.015 6.369l-44.765-6.316c-3.909-0.555-6.627-4.299-6.117-8.385zM421.399 307.121l5.515-13.736c1.508-3.783 5.675-5.588 9.298-4.001l41.69 18.233c3.631 1.588 5.324 5.945 3.822 9.748l-5.483 13.723c-1.534 3.783-5.695 5.588-9.318 4.001l-41.704-18.233c-3.624-1.587-5.324-5.945-3.822-9.735zM255.987 173.902c26.069 0 47.179 22.101 47.179 49.329 0 1.541-0.086 3.089-0.219 4.603l66.9 62.965c10.575 10 11.514 27.029 2.057 38.046l-2.288 3.465c-9.497 11.018-25.957 12.004-36.552 2.024l-66.855-62.959c-3.3 0.761-6.705 1.184-10.218 1.184-26.043 0-47.167-22.069-47.167-49.343-0.007-27.214 21.117-49.315 47.16-49.315zM255.987 19.633c-52.53 0-100.126 21.937-135.071 57.391l-27.412-23.98c41.578-43.555 98.969-70.644 162.483-70.644 64.196 0 122.181 27.591 163.852 71.966l-27.419 24c-35.064-36.261-83.209-58.733-136.433-58.733z" />
<glyph unicode="&#xe610;" d="M432.9 220.070c0 11.276-8.068 20.416-19.331 20.416-11.283 0-19.88-9.139-19.88-20.416 0-75.981-61.557-137.803-137.518-137.803-75.988 0-137.669 61.822-137.669 137.803 0 11.276-9.060 20.416-20.343 20.416s-21.956-9.139-21.956-20.416c0.007-91.588 64.064-167.244 156.65-177.423v-20.567h-48.264c-11.276 0-20.409-8.558-20.409-19.84 0-11.262 9.133-19.84 20.409-19.84h143.701c11.262 0 20.409 8.577 20.409 19.84 0 11.283-9.147 19.84-20.409 19.84h-55.757v20.567c85.973 10.164 160.367 85.834 160.367 177.423zM249.387 121.412c56.452 0 102.507 45.771 102.507 102.229v152.53c0 56.459-46.055 102.229-102.507 102.229-56.471 0-102.507-45.771-102.507-102.229v-152.53c0-56.464 46.042-102.229 102.507-102.229zM208.53 399.040h95.833c10.594 0 19.166-9.252 19.166-19.84 0-10.601-8.591-19.84-19.166-19.84h-95.834c-10.601 0-19.172 9.245-19.172 19.84-0.013 10.588 8.571 19.84 19.172 19.84zM208.53 319.68h95.833c10.594 0 19.166-9.265 19.166-19.84 0-10.601-8.591-19.84-19.166-19.84h-95.834c-10.601 0-19.172 9.245-19.172 19.84-0.013 10.575 8.571 19.84 19.172 19.84zM208.53 240.32h95.833c10.594 0 19.166-5.952 19.166-16.533 0-10.594-8.591-16.533-19.166-16.533h-95.834c-10.601 0-19.172 5.939-19.172 16.533-0.013 10.575 8.571 16.533 19.172 16.533z" />
<glyph unicode="&#xe611;" d="M201.334 125.459c-25.904 0-46.988-21.116-46.988-46.988 0-25.877 21.084-46.981 46.988-46.981 25.964 0 47.028 21.103 47.028 46.981s-21.064 46.988-47.028 46.988zM385.217 125.459c-25.964 0-47.034-21.116-47.034-47.001s21.077-46.995 47.034-46.995c25.918 0 47.007 21.11 47.007 46.995s-21.089 47.001-47.007 47.001zM437.82 147.733h-271.279c-5.867 0-11.124 2.315-13.187 7.817l-92.15 243.49h-39.099c-7.79 0-14.107 5.449-14.107 13.22 0 7.797 6.322 13.233 14.107 13.233h48.852c5.886 0 11.15-2.328 13.213-7.817l92.13-243.489h261.517c7.797 0 14.093-5.423 14.093-13.24 0-7.777-6.296-13.214-14.093-13.214zM482.646 399.040h-349.409c0 0 63.349-166.92 64.413-170.081 4.762-14.14 11.131-15.092 23.035-15.092h233.801c0 0 22.248 77.72 47.001 152.603 0.827 2.493 2.513 9.245 2.513 11.474 0 12.123-9.205 21.096-21.354 21.096z" />
<glyph unicode="&#xe612;" d="M498.346 340.135l-22.916 3.135c-2.017 8.512-5.277 16.527-9.748 23.762l14.179 18.577c2.043 2.699 1.786 6.819-0.601 9.213l-12.123 12.135c-2.375 2.394-6.507 2.659-9.205 0.628l-18.57-14.132c-7.275 4.484-15.257 7.823-23.781 9.861l-3.141 19.608c-0.443 3.346-3.577 2.572-6.951 2.572h-17.155c-3.38 0-6.514 0.774-6.983-2.572l-3.148-21.361c-8.531-2.037-16.487-4.503-23.741-8.961l-18.584 14.549c-2.672 2.037-6.832 1.991-9.219-0.404l-12.142-12.029c-2.38-2.394-2.665-6.468-0.615-9.16l14.106-18.55c-4.457-7.235-7.804-15.237-9.815-23.748l-21.433-3.128c-3.34-0.476-4.385-3.604-4.385-6.964v-17.175c0-3.36 1.045-6.495 4.392-6.951l22.281-3.154c2.017-8.532 4.927-16.507 9.397-23.762l-14.317-18.577c-2.057-2.678-1.878-6.818 0.503-9.212l12.089-12.136c2.375-2.375 6.507-2.665 9.199-0.608l18.563 14.093c7.262-4.444 15.204-7.81 23.728-9.821l3.141-24.503c0.457-3.373 3.604-7.493 6.983-7.493h17.155c3.38 0 6.514 4.12 6.971 7.493l3.141 23.808c8.524 2.017 16.514 5.72 23.781 10.172l18.57-13.921c2.692-2.050 6.819-1.68 9.205 0.695l12.142 12.181c2.387 2.387 2.659 6.554 0.635 9.232l-14.12 18.591c4.457 7.255 7.824 15.237 9.827 23.761l22.716 3.168c3.327 0.443 5.641 3.585 5.641 6.944v17.175c0 3.36-2.315 6.495-5.654 6.971zM396.904 282.335c-23.325 0-42.233 18.92-42.233 42.265 0 23.325 18.901 42.226 42.233 42.226 23.345 0 42.265-18.901 42.265-42.226-0.007-23.351-18.921-42.265-42.265-42.265zM303.907 197.578l-32.325 4.404c-2.851 11.964-7.5 23.173-13.776 33.318l19.853 26.064c2.857 3.763 2.46 9.576-0.873 12.916l-17.016 17.003c-3.333 3.359-9.153 3.736-12.916 0.892l-26.043-19.814c-10.165 6.289-21.368 10.979-33.317 13.809l-4.424 28.702c-0.648 4.675-5.040 4.808-9.761 4.808h-24.072c-4.728 0-9.12-0.132-9.768-4.808l-4.405-30.567c-11.951-2.837-23.173-6.594-33.325-12.863l-26.056 20.256c-3.743 2.851-9.563 2.705-12.909-0.641l-17.023-16.911c-3.333-3.34-3.73-9.093-0.867-12.849l19.781-26.036c-6.256-10.138-10.945-21.328-13.782-33.305l-33.391-4.397c-4.683-0.635-9.491-5.019-9.491-9.741v-24.072c0-4.748 4.808-9.139 9.497-9.748l32.901-4.425c2.844-11.971 7.771-23.173 14.047-33.332l-19.681-26.043c-2.87-3.763-2.407-9.576 0.925-12.916l17.056-17.043c3.347-3.32 9.172-3.716 12.936-0.853l26.056 19.793c10.151-6.269 21.374-10.959 33.325-13.788l4.411-23.689c0.642-4.688 5.040-13.009 9.761-13.009h24.072c4.721 0 9.113 8.32 9.761 13.009l4.431 21.447c11.944 2.83 23.16 8.651 33.311 14.913l26.049-19.231c3.75-2.87 9.57-2.189 12.916 1.137l17.023 17.175c3.34 3.34 3.729 9.226 0.88 12.988l-19.827 26.077c6.283 10.159 10.978 21.381 13.835 33.358l32.22 4.438c4.675 0.601 8.307 4.993 8.307 9.741v24.072c0 4.721-3.631 9.113-8.307 9.761zM161.284 116.538c-32.729 0-59.249 26.519-59.249 59.229 0 32.723 26.519 59.243 59.249 59.243 32.709 0 59.222-26.52 59.222-59.243 0-32.709-26.512-59.229-59.222-59.229z" />
<glyph unicode="&#xe613;" d="M10.507 73.036c-6.62-22.366 5.8-33.88 27.604-25.607l449.581 170.743c21.811 8.273 21.731 21.639-0.146 29.688l-450.467 165.644c-21.89 8.048-34.092-3.578-27.121-25.832l24.543-78.329c6.977-22.253 31.592-42.993 54.706-46.101l181.919-24.383c23.107-3.101 23.094-8.016-0.039-10.912l-180.94-22.717c-23.14-2.904-47.497-23.57-54.111-45.936l-25.527-86.257z" />
<glyph unicode="&#xe614;" d="M136.616 276.852c-15.614-82.276 26.090-165.148 101.469-201.442 14.523-7.024 30.011-12.135 46.035-15.178 100.443-19.033 197.553 47.113 216.633 147.51 15.601 82.277-26.096 165.161-101.448 201.515-14.608 6.99-30.071 12.115-46.115 15.144-100.351 19.013-197.5-47.093-216.573-147.55zM345.392 383.129c12.433-2.375 24.416-6.289 35.646-11.666 58.296-28.133 90.589-92.263 78.5-155.876-14.774-77.673-89.921-128.855-167.628-114.080-12.361 2.348-24.37 6.236-35.62 11.639-58.316 28.107-90.51 92.249-78.487 155.903 14.768 77.674 89.915 128.821 167.589 114.080zM49.889 31.9c-12.307-8.327-28.993-5.060-37.279 7.209-1.799 2.652-3.075 5.541-3.809 8.524-2.652 10.608 1.389 22.253 11.044 28.761l96.363 64.943 30.097-44.475-96.416-64.963z" />
<glyph unicode="&#xe615;" d="M87.77 200.64c-1.76-6.613-1.249-17.784 2.519-22.551 4.007-4.768 10.032-7.512 20.064-7.512 15.787 0 33.82 3.611 36.843 18.167 0.734 3.253 0 5.939-1.501 8.214-7.771 11.527-92.501 20.019-112.308 41.314-8.041 8.524-8.293 21.288-6.024 31.572 8.26 39.607 48.628 56.498 121.091 56.498 76.952 0.007 95.51-19.887 88.738-59.566h-74.711c1.508 13.227-0.244 17.208-5.013 20.971-4.511 3.769-11.758 5.449-21.288 5.449-16.050 0-25.819-5.78-27.829-15.058-0.509-2.757-0.257-6.15 1.508-8.154 9.265-11.283 91.496-19.239 110.787-40.798 5.767-6.27 11.037-16.004 7.275-33.583-7.519-35.831-44.124-58.389-126.612-58.389-98.241-0.007-96.773 36.976-91.237 63.428h77.7zM289.093 326.293h97.011c53.409 0 87.005-6.673 106.541-31.737 10.271-13.3 14.536-36.056 8.763-63.138-5.502-26.579-19.8-53.026-38.351-65.565-24.82-17.036-46.38-24.733-102.262-24.733h-110.040l38.338 185.173zM335.717 180.8h21.070c34.594 0 58.667 19.072 65.915 52.913 7.029 33.827-10.277 52.9-44.858 52.9h-21.063l-21.063-105.813z" />
<glyph unicode="&#xe616;" d="M493.009 213.218c-7.096 7.195-16.553 11.164-26.612 11.164-8.015 0-15.615-2.56-21.983-7.209-18.411 14.708-41.637 23.497-66.921 23.497-59.752 0-108.195-49.032-108.195-109.524 0-60.486 48.443-109.531 108.195-109.531 59.758 0 108.188 49.045 108.188 109.531 0 6.507-0.596 12.889-1.666 19.106l8.981 9.12c14.668 14.813 14.682 38.992 0.013 53.846zM479.689 172.817l-88.943-90.053c-7.308-7.401-19.298-7.401-26.606 0l-45.149 45.699c-7.301 7.413-7.301 19.543 0 26.943 7.315 7.413 19.298 7.413 26.606 0l24.807-25.124c7.308-7.401 6.752-7.401 14.067 0l68.613 69.479c1.64 1.653 3.531 2.89 5.541 3.796v0 0c0.516 0.231 1.031 0.437 1.56 0.635 0.748 0.271 1.514 0.503 2.281 0.688 0.284 0.053 0.582 0.106 0.866 0.139 1.012 0.165 2.031 0.311 3.062 0.311 2.884 0 5.714-0.748 8.353-2.063 1.786-0.892 3.472-2.004 4.96-3.498 7.301-7.413 7.301-19.549-0.020-26.949zM376.667 271.668c33.12 0 61.2-11.692 87.653-31.136v160.321c0 19.86-16.884 37.868-36.743 37.868h-381.014c-19.853 0-38.563-18.008-38.563-37.868v-260.711c0-19.866 18.709-32.088 38.563-32.088h194.935c-2.070 6.613-3.055 17.426-3.055 27.538 0 76.232 62.007 136.076 138.225 136.076zM233.269 336.597l-6.553 17.869c-3.664 7.321-13.379 18.12-21.566 18.12h-157.47v11.507c0 8.194 7.321 21.56 15.508 21.56h347.611c8.188 0 13.841-13.365 13.841-21.56v-57.8h-169.797c-8.188 0-17.889 2.963-21.572 10.303z" />
<glyph unicode="&#xe617;" d="M480.748 403.861c-14.993 15.191-34.964 23.557-56.24 23.557-16.944 0-33-5.377-46.445-15.224-38.919 31.076-88.004 49.673-141.427 49.673-126.275 0-228.636-103.617-228.636-231.467 0-127.823 102.368-231.467 228.636-231.467 126.288 0 228.643 103.644 228.643 231.467 0 13.788-1.257 27.254-3.538 40.374l19 19.252c31.010 31.367 31.023 82.441 0.007 113.835zM452.615 318.483l-187.951-190.305c-15.476-15.647-40.785-15.647-56.24 0l-95.404 96.575c-15.475 15.667-15.475 41.274 0 56.921 15.462 15.661 40.764 15.661 56.226 0l52.417-53.065c15.462-15.654 14.272-15.654 29.733 0l144.991 146.803c3.465 3.498 7.466 6.091 11.705 8.028v0 0c1.098 0.503 2.183 0.939 3.307 1.323 1.587 0.582 3.2 1.071 4.828 1.441 0.596 0.126 1.216 0.219 1.812 0.324 2.143 0.37 4.272 0.628 6.468 0.628 6.071 0 12.076-1.56 17.644-4.345 3.75-1.892 7.361-4.24 10.488-7.394 15.449-15.661 15.449-41.28-0.026-56.934z" />
<glyph unicode="&#xe618;" d="M486.745 262.025l-212.698 162.543c-22.769 17.387-41.195 8.154-41.195-20.481v-64.566h-173.607c-28.669 0-51.247-26.281-51.247-54.943v-108.353c0-28.668 22.578-54.944 51.247-54.944h173.607v-64.553c0-28.668 18.424-37.881 41.195-20.495l212.804 162.556c22.783 17.393 22.671 45.851-0.106 63.237z" />
<glyph unicode="&#xe619;" d="M400.31 478.4h-287.502c-28.695 0-51.901-23.893-51.901-52.768v-355.665l195.093-87.567 195.093 87.7v355.533c0 28.801-22.181 52.768-50.784 52.768zM338.065 134.916l-82.31 45.163-83.103-43.575 17.903 91.463-67.635 64.784 93.433 11.355 41.333 83.771 39.825-84.439 93.235-13.094-68.918-63.588 16.236-91.84z" />
<glyph unicode="&#xe61a;" d="M8 95.838c0-34.825 24.826-63.316 52.907-63.316s52.907 28.497 52.907 63.316v269.11c0 34.826-24.826 63.316-52.907 63.316s-52.907-28.496-52.907-63.316v-269.11zM180.416 258.507l276.060 163.469c25.951 15.396 47.524 1.607 47.524-30.56v-322.036c0-32.187-21.572-45.956-47.504-30.534l-275.901 163.667c-25.938 15.442-26.116 40.639-0.179 55.995z" />
<glyph unicode="&#xe61b;" d="M127.516 261.039c-0.178 19.887 8.095 38.761 24.992 51.822l7.599 6.891v34.68c0 22.293-13.107 29.389-30.752 15.767l-108.419-84.253c-17.645-13.624-17.108-35.673 0.773-48.985l107.050-80.584c17.895-13.313 31.347-5.959 31.347 16.348v31.003l-6.679 5.959c-17.142 12.757-25.739 31.467-25.911 51.353zM464.538 250.915c0 0-39.899 52.384-145.712 62.781v40.738c0 22.293-15.938 29.389-33.596 15.767l-111.177-84.254c-11.395-8.796-13.947-21.090-13.947-32.293 0-0.013 0-0.013 0-0.013v0c0-6.144 7.288-11.964 13.617-16.672l110.409-80.591c17.902-13.313 34.694-5.965 34.694 16.341v36.889c0 0.291 157.675 40.348 182.151-122.849 0.311-2.050-0.443-3.2 0.092-3.075 0 0 0.813-0.489 1.342 4.173 2.798 25.389 8.663 111.382-37.875 163.059z" />
<glyph unicode="&#xe61c;" d="M442.529 259.942c0 0-64.183 75.425-216.289 90.385v58.66c0 32.101-16.453 42.319-41.869 22.704l-158.171-121.295c-16.421-12.678-24.813-30.381-18.2-46.519 0-0.007 0-0.020 0-0.020v0c0-8.843 11.864-17.215 20.971-24.006l153.132-116.025c25.759-19.172 44.137-8.591 44.137 23.524v53.111c0 0.423 233.536 58.099 268.772-176.873 0.443-2.95 2.619-4.616 3.399-4.438 0 0-0.463-0.701 0.298 6.012 4.041 36.552 10.859 160.38-56.18 234.78z" />
<glyph unicode="&#xe61d;" d="M352.839 390.462c-4.821 11.475-1.204 40.315-9.635 50.685-8.373 10.303-32.359 36.711-87.514 36.711-55.168 0-78.513-26.413-86.925-36.711-8.399-10.363-4.821-39.217-9.583-50.685-4.795-11.461-29.978-30.58-29.978-75.749 0-45.149 26.393-64.619 26.393-76.145 0-5.813 0.165-1.144 2.904-62.417 4.041-90.563 8.016-123.319 35.936-173.289 14.317-25.653 105.549-28.014 119.543-5.978 30.924 48.641 35.937 84.955 39.515 179.268 2.236 59.276 2.943 56.597 2.943 62.417 0 11.527 26.373 31.004 26.373 76.145-0.007 45.175-25.197 64.288-29.971 75.749zM254.612 397.281c18.855 0 36.162-6.409 50.011-17.069l-27.697-27.736c-6.548 3.935-14.139 6.203-22.313 6.203-8.155 0-15.753-2.268-22.3-6.203l-27.716 27.743c13.875 10.661 31.175 17.063 50.017 17.063zM281.707 315.163c0-14.959-12.142-27.088-27.095-27.088s-27.102 12.122-27.102 27.088c0 14.972 12.149 27.062 27.101 27.062s27.095-12.096 27.095-27.062zM172.453 315.163c0 18.828 6.409 36.102 17.036 49.918l27.737-27.723c-3.875-6.507-6.144-14.087-6.144-22.201 0-8.141 2.281-15.753 6.197-22.313l-27.737-27.723c-10.667 13.908-17.089 31.176-17.089 50.043zM221.088 65.516c-14.166 0-25.64 11.481-25.64 25.574 0 14.159 11.475 25.647 25.64 25.647 14.173 0 25.62-11.488 25.62-25.647-0.007-14.087-11.447-25.574-25.62-25.574zM221.088 137.919c-14.166 0-25.64 11.467-25.64 25.633 0 14.12 11.475 25.587 25.64 25.587 14.173 0 25.62-11.467 25.62-25.587-0.007-14.166-11.447-25.633-25.62-25.633zM254.612 233.012c-18.802 0-36.069 6.369-49.944 17.029l27.743 27.75c6.501-3.921 14.087-6.176 22.201-6.176 8.108 0 15.707 2.248 22.22 6.176l27.736-27.75c-13.849-10.661-31.142-17.029-49.957-17.029zM288.815 65.516c-14.166 0-25.633 11.481-25.633 25.574 0 14.159 11.467 25.647 25.633 25.647s25.647-11.488 25.647-25.647c0-14.087-11.481-25.574-25.647-25.574zM288.815 137.919c-14.166 0-25.633 11.467-25.633 25.633 0 14.12 11.467 25.587 25.633 25.587s25.647-11.467 25.647-25.587c0-14.166-11.481-25.633-25.647-25.633zM319.707 265.127l-27.763 27.723c3.935 6.553 6.216 14.173 6.216 22.313 0 8.108-2.262 15.687-6.137 22.201l27.73 27.723c10.601-13.835 16.976-31.129 16.976-49.918 0.007-18.875-6.375-36.142-17.023-50.043z" />
<glyph unicode="&#xe61e;" d="M459.691 234.666c-3.181 13.841-16.983 22.485-30.812 19.317-13.861-3.188-22.498-16.989-19.324-30.819 12.956-56.352-6.62-114.8-51.068-152.536-65.24-55.4-163.389-47.392-218.789 17.856s-53.959 163.403 11.296 218.789c25.52 21.685 55.406 34.085 81.86 36.591v-82.416c0-4.179 9.649-5.257 13.379-2.4l139.059 103.677c3.743 2.857 5.397 7.539 1.627 10.403l-141.486 103.677c-3.75 2.857-12.578 1.76-12.578-2.413v-79.023c-39.68-2.58-80.107-19.159-115.144-48.906-86.859-73.752-94.233-204.399-20.501-291.252 73.739-86.873 206.051-97.534 292.918-23.788 59.176 50.235 86.82 128.12 69.565 203.241z" />
<glyph unicode="&#xe61f;" d="M73.181 478.4c-31.764 0-46.988-24.74-33.821-53.647l191.304-420.502c13.167-28.907 34.839-29.224 48.125-0.39l193.751 421.137c13.313 28.848-1.792 53.403-33.556 53.403h-365.803z" />
<glyph unicode="&#xe620;" d="M500.687 230.4c0-135.141-109.553-244.693-244.693-244.693s-244.693 109.553-244.693 244.693c0 135.141 109.553 244.693 244.693 244.693s244.693-109.553 244.693-244.693z" />
<glyph unicode="&#xe621;" d="M87.076 244.612l-18.781-13.941 7.175-22.248c2.413-7.433-0.773-9.827-7.109-5.231l-18.795 13.616-18.788-13.669c-6.329-4.589-9.523-2.281-7.116 5.152l7.183 22.089-18.795 14.238c-6.322 4.596-5.106 8.928 2.712 8.928h23.233l7.175 21.513c2.413 7.44 6.376 7.731 8.789 0.291l7.182-21.804h23.226c7.817 0 9.040-4.332 2.712-8.935zM189.602 244.612l-18.788-13.941 7.175-22.248c2.413-7.433-0.774-9.827-7.109-5.231l-18.795 13.616-18.788-13.669c-6.329-4.589-9.523-2.281-7.109 5.152l7.182 22.089-18.795 14.232c-6.323 4.596-5.106 8.928 2.712 8.928h23.233l7.175 21.513c2.413 7.44 6.375 7.731 8.789 0.291l7.183-21.798h23.227c7.81 0 9.041-4.332 2.712-8.935zM292.135 244.612l-18.801-13.941 7.183-22.248c2.408-7.433-0.774-9.827-7.103-5.231l-18.795 13.616-18.788-13.669c-6.329-4.589-9.524-2.281-7.109 5.152l7.183 22.089-18.795 14.232c-6.322 4.596-5.099 8.928 2.712 8.928h23.233l7.175 21.513c2.413 7.44 6.375 7.731 8.789 0.291l7.168-21.798h23.233c7.804 0 9.034-4.332 2.719-8.935zM381.296 197.995c-1.997 0-4.345 0.966-6.99 2.89l-17.168 12.473-17.175-12.473c-4.921-3.577-9.106-3.677-11.163-0.84-1.455 1.997-1.514 5.053-0.205 9.1l6.56 20.184-17.168 12.472c-5.264 3.829-5.595 6.196-4.947 8.194 0.655 1.984 2.791 3.552 9.298 3.552h21.216l6.548 20.984c2.017 6.197 4.933 7.897 7.036 7.897 2.089 0 5.013-1.905 7.024-8.101l6.567-20.779h21.216c6.501 0 8.644-1.567 9.292-3.558s0.311-4.768-4.947-8.591l-17.168-12.274 6.553-20.072c1.316-4.060 1.243-7.076-0.199-9.067-0.952-1.316-2.447-1.991-4.18-1.991zM381.296 203.51v-2.745l0.053 2.777c-0.020-0.020-0.039-0.026-0.053-0.033zM318.324 247.614c0.219-0.125 0.8-0.457 2.93-2.004l20.421-14.496-7.81-23.861c-1.012-3.128-0.568-4.053-0.563-4.067-0.119 0.257 1.012 0.404 3.413 2.136l20.428 14.86 20.421-14.827c2.156-1.567 3.293-1.792 3.644-1.819-0.113 0.225 0.013 1.382-0.8 3.896l-7.804 24.013 20.421 13.716c2.13 1.541 2.704 1.773 2.857 1.773-0.013 0-0.026 0-0.026 0-0.304 0-1.375 0-3.921 0h-25.243l-7.797 25.349c-0.82 2.513-1.594 4.048-1.878 4.292-0.046-0.245-0.827-2.116-1.647-4.629l-7.784-25.011h-25.243c-2.639 0-3.697 0.873-4.021 0.681zM483.823 197.995c-1.997 0-4.351 0.966-6.99 2.89l-17.175 12.473-17.161-12.479c-4.921-3.577-9.106-3.677-11.163-0.84-1.455 1.997-1.514 5.053-0.205 9.1l6.56 20.184-17.168 12.472c-5.264 3.829-5.595 6.196-4.953 8.194 0.655 1.991 2.791 3.558 9.298 3.558h21.216l6.548 20.984c2.017 6.196 4.933 7.897 7.029 7.897s5.019-1.904 7.029-8.101l6.567-20.779h21.216c6.501 0 8.644-1.567 9.292-3.558s0.311-4.768-4.947-8.591l-17.168-12.275 6.553-20.072c1.316-4.060 1.243-7.076-0.199-9.067-0.952-1.316-2.447-1.991-4.18-1.991zM483.823 203.51v-2.745l0.053 2.777c-0.020-0.020-0.039-0.026-0.053-0.033zM420.851 247.614c0.219-0.125 0.8-0.457 2.93-2.004l20.421-14.496-7.81-23.861c-1.012-3.128-0.568-4.053-0.563-4.067-0.125 0.257 1.012 0.404 3.413 2.136l20.421 14.86 20.428-14.827c2.156-1.567 3.293-1.792 3.644-1.819-0.113 0.225 0.013 1.382-0.8 3.896l-7.804 24.013 20.421 13.716c2.123 1.541 2.704 1.773 2.857 1.773-0.013 0-0.026 0-0.033 0-0.298 0-1.369 0-3.915 0h-25.243l-7.797 25.349c-0.82 2.513-1.594 4.048-1.878 4.292-0.053-0.245-0.827-2.116-1.647-4.629l-7.784-25.011h-25.243c-2.639 0-3.697 0.873-4.021 0.681z" />
<glyph unicode="&#xe622;" d="M256.013 478.4c0 0-23.16-61.967-188.493-61.967v-253.985c0-100.324 188.493-180.048 188.493-180.048s188.467 79.724 188.467 180.048v253.985c-165.333 0-188.467 61.967-188.467 61.967zM255.339 26.107c-56.213 27.307-148.139 85.656-148.139 136.341v215.595c79.36 5.026 122.287 24.059 149.084 43.132l-0.946-395.068z" />
<glyph unicode="&#xe623;" d="M255.887 260.021c58.753 0 106.534 48.972 106.534 109.205 0.007 60.181-47.781 109.173-106.534 109.173-58.733 0-106.541-48.991-106.541-109.179 0.007-60.228 47.834-109.2 106.541-109.2zM380.615 243.501l-36.472 9.709c-23.716-20.879-54.467-33.569-88.156-33.662-33.642 0.099-64.421 12.817-88.136 33.662l-36.499-9.709c-38.946-10.852-51.684-27.195-48.489-48.489l29.112-174.546c4.292-28.96 21.705-38.067 48.495-38.067h191.065c26.837 0 44.224 9.106 48.508 38.073l29.086 179.757c3.195 21.255-9.55 32.425-48.515 43.271z" />
<glyph unicode="&#xe624;" d="M503.875 299.020l-10.297 136.083c-1.276 16.811-16.070 31.605-32.888 32.882l-136.069 10.29c-16.805 1.27-40.335-7.44-52.245-19.37l-255.427-255.413c-11.931-11.924-11.931-31.426 0-43.351l168.779-168.779c11.917-11.924 31.413-11.924 43.344 0l255.433 255.427c11.917 11.911 20.634 35.421 19.37 52.232zM347.879 262.845c6.653-6.64 6.798-17.201 0.172-23.821-6.613-6.613-17.168-6.455-23.821 0.172l-29.668 28.589c-18.947 18.868-28.675 15.369-37.815 6.224-10.965-10.971-3.433-21.428 10.046-38.853 25.19-32.723 31.426-56.961 4.272-84.109-19.529-19.516-43.542-25.951-79.149 4.642l-13.292-13.293c-6.633-6.627-14.615-6.798-21.243-0.185-6.64 6.647-3.888 17.201 2.725 23.821v0.020l9.907 12.453-17.069 15.793c-6.62 6.613-7.427 17.195-0.8 23.821 6.62 6.6 16.864 6.441 23.477-0.185l28.596-28.741c20.495-20.488 29.072-23.292 40.229-12.149 11.15 11.156 8.002 20.719-6.203 38.893-28.801 37.048-31.367 59.752-7.070 84.043 16.137 16.143 49.739 29.807 84.465-1.673l12.796 12.837c6.64 6.62 17.195 6.805 23.821 0.179s6.455-17.201-0.159-23.821l-14.437-14.417 10.217-10.238zM447.939 378.988c-11.976-11.976-31.387-11.976-43.363 0s-11.976 31.373 0 43.351 31.387 11.976 43.363 0c11.964-11.971 11.964-31.373 0-43.351z" />
<glyph unicode="&#xe625;" d="M394.608-17.607c-8.517 0-17.115 2.777-24.324 8.432l-292.303 230.356 291.132 247.822c16.573 14.099 41.413 12.103 55.526-4.451 14.073-16.546 12.089-41.406-4.457-55.493l-217.949-185.53 216.759-170.836c17.089-13.438 20.025-38.212 6.56-55.274-7.744-9.9-19.291-15.026-30.944-15.026z" />
<glyph unicode="&#xe626;" d="M256 475.093c-135.156 0-244.693-109.57-244.693-244.693 0-135.157 109.537-244.693 244.693-244.693 135.144 0 244.693 109.536 244.693 244.693 0 135.123-109.549 244.693-244.693 244.693zM372.712 214.495l-158.297-93.427c-14.794-8.796-27.856-0.933-27.856 17.426v183.792c0 18.365 13.061 26.235 27.869 17.453l157.794-93.301c14.813-8.763 15.291-23.14 0.489-31.943z" />
<glyph unicode="&#xe627;" d="M27.317 180.423c0 0-1.825 9.093 22.816 26.301 2.38 1.68 5.852 6.077 5.793 9.292-0.059 4.596-8.088 9.477-8.088 9.477l-39.839 27.677 20.025 18.769c0 0 5.139 2.44 8.974 1.441 3.108-0.807 14.543-3.671 19.344-5.264 16.315-5.469 41.148-15.309 56.63-21.48 4.12-1.633 8.749-4.351 11.819-3.743 3.061 0.615 11.19 5.026 12.903 5.912 12.043 6.044 49.461 24.853 66.312 32.048 13.69 5.82 5.542 13.756 5.542 13.756s-171.451 135.904-175.624 144.555c-3.855 7.897 4.98 11.652 4.98 11.652l22.928 9.781 281.232-111.012c0 0 88.909 38.899 99.696 42.571 10.82 3.631 49.058 14.12 59.348-10.025 10.231-24.159-23.907-44.416-34.026-49.653-10.139-5.231-99.855-42.22-99.855-42.22l-115.323-279.459-22.962-9.741c0 0-8.843-3.757-11.851 4.517-3.313 9.014 17.909 226.745 17.909 226.745s-0.072 11.381-13.756 5.575c-16.884-7.136-56.412-21.024-69.116-25.481-1.832-0.622-10.661-3.413-13.214-5.178-2.56-1.792-3.843-6.997-5.516-11.137-6.283-15.402-16.474-40.096-23.855-55.644-2.169-4.57-8.022-14.788-9.623-17.584-1.945-3.452-7.281-5.449-7.281-5.449l-27.419-1.389 7.758 47.887c0 0 2.056 9.18-1.21 12.4-2.281 2.275-7.856 2.851-10.7 2.275-29.488-5.787-34.753 1.832-34.753 1.832z" />
<glyph unicode="&#xe628;" d="M42.508 375.98c0 13.497 10.945 24.463 24.463 24.463h366.637v8.889c0 13.511-10.945 24.463-24.45 24.463h-376.695c-13.511-0.007-24.463-10.952-24.463-24.463v-288.646c0-13.511 10.951-24.45 24.463-24.45h10.046v279.744zM479.531 364.558h-376.683c-13.511 0-24.463-10.958-24.463-24.463v-288.633c0-13.511 10.945-24.45 24.463-24.45h376.689c13.511 0 24.456 10.938 24.456 24.45v288.633c0.007 13.497-10.938 24.463-24.463 24.463zM253.963 298.888c16.931 0 30.626-13.703 30.626-30.62s-13.696-30.633-30.626-30.633c-16.904 0-30.62 13.716-30.62 30.633 0 16.923 13.716 30.62 30.62 30.62zM224.037 84.999l0.085 0.132-92.996-0.132 92.117 135.652 46.889-67.747 69.738 102.679 117.823-170.234-233.655-0.351z" />
<glyph unicode="&#xe629;" d="M282.596 359.601c-55.685 0-103.254-34.358-122.907-82.992 11.469-5.216 20.787-13.442 26.856-24.392 10.855-19.565 9.27-43.247-4.308-65.011l-15.448-24.685c22.665-40.605 66.007-68.103 115.808-68.103 73.236 0 132.587 59.358 132.587 132.588-0.007 73.223-59.358 132.595-132.587 132.595zM279.695 240.285c1.161-0.171 2.355-0.341 3.632-0.499 36.099-4.54 49.767-15.585 49.767-42.237 0-17.715-5.413-39.336-39.547-45.404v-14.084c0-7.257-6.375-13.162-13.654-13.162-7.257 0-13.654 5.898-13.654 13.162v13.831h-17.353c-7.291 0-13.135 6.704-13.135 13.981 0 7.257 5.898 13.736 13.189 13.736l31.996 0.71c20.74 0.041 24.262 7.353 24.262 17.374 0 9.079-5.475 12.24-15.503 14.159-1.168 0.171-1.979 0.375-3.257 0.526-36.12 4.533-48.278 15.586-48.278 42.244 0 17.715 7.598 39.349 41.732 45.418v14.077c0 7.264 6.375 13.148 13.654 13.148s13.654-5.892 13.654-13.148v-12.035h12.937c7.284 0 13.155-7.605 13.155-14.862 0-7.263-5.863-14.465-13.155-14.465l-31.969-0.798c-20.733-0.041-24.139-7.399-24.139-17.422-0.014-9.087 5.611-12.322 15.667-14.248zM281.887 457.421c-119.917 0-218.030-93.901-226.119-209.954h-28.153c-22.145 0-30.659-16.391-18.924-35.185l47.992-77.264c11.742-18.787 30.951-19.067 42.681-0.279l47.992 77.674c11.735 18.787 3.215 35.055-18.923 35.055h-18.684c7.974 88.746 82.098 156.126 172.135 156.126 95.307 0 172.865-78.063 172.865-173.391 0-95.307-77.545-173.131-172.865-173.131-57.139 0-107.847 27.75-139.359 70.601l-9.005-14.473c-7.332-11.735-16.91-20.562-27.785-26.153 41.567-51.255 105.008-84.050 176.142-84.050 125.201 0 226.707 102.017 226.707 227.212 0.007 125.201-101.499 227.212-226.693 227.212z" />
<glyph unicode="&#xe62a;" d="M256 475.093c-135.156 0-244.693-109.55-244.693-244.693s109.537-244.693 244.693-244.693 244.693 109.549 244.693 244.693-109.536 244.693-244.693 244.693zM248.838 256.503c1.917-0.278 3.875-0.563 5.972-0.82 59.467-7.473 75.756-25.66 75.756-69.533 0-29.164-18.352-64.771-71.259-74.777v-23.16c0-11.964-7.863-21.665-19.833-21.665s-19.847 9.702-19.847 21.665v26.453h-21.487c-11.989 0-21.639 9.185-21.639 21.156 0 11.95 9.689 21.48 21.685 21.48l52.661 0.82c34.157 0.067 39.852 11.924 39.852 28.431 0 14.959-9.127 20.072-25.64 23.245-1.931 0.277-3.545 0.529-5.635 0.781-59.467 7.473-87.137 25.66-87.137 69.533 0 29.159 7.651 64.757 60.559 74.757v23.166c0 11.964 7.857 21.665 19.84 21.665 11.971 0 19.84-9.709 19.84-21.665v-18.676h42.88c11.99 0 21.652-13.081 21.652-25.051 0-11.951-9.663-23.841-21.652-23.841l-52.615-1.581c-34.165-0.066-39.779-12.308-39.779-28.808 0.013-14.959 9.305-20.409 25.825-23.577z" />
<glyph unicode="&#xe62b;" d="M256 475.093c-135.156 0-244.693-109.57-244.693-244.693 0-135.157 109.537-244.693 244.693-244.693 135.137 0 244.693 109.536 244.693 244.693 0 135.123-109.557 244.693-244.693 244.693zM219.627 114.667h-59.52v231.467h59.52v-231.467zM351.893 114.667h-59.52v231.467h59.52v-231.467z" />
<glyph unicode="&#xe62c;" d="M290.204 408.762c-6.792 0-13.108 4.325-15.356 11.144l-10.033 30.705c-2.777 8.485 1.852 17.599 10.33 20.375 8.471 2.764 17.605-1.852 20.382-10.33l10.046-30.713c2.771-8.471-1.852-17.598-10.331-20.375-1.68-0.549-3.373-0.807-5.039-0.807zM457.125 324.944c-6.779 0-13.12 4.325-15.349 11.137-2.771 8.478 1.852 17.599 10.337 20.369l30.712 10.039c8.478 2.784 17.591-1.839 20.369-10.324s-1.839-17.604-10.331-20.382l-30.726-10.039c-1.653-0.543-3.34-0.8-5.013-0.8zM391.017 401.414c-2.467 0-4.953 0.563-7.301 1.76-7.943 4.028-11.144 13.749-7.103 21.705l14.628 28.827c4.021 7.956 13.749 11.137 21.692 7.096 7.969-4.035 11.151-13.756 7.103-21.719l-14.608-28.815c-2.837-5.608-8.531-8.856-14.411-8.856zM213.701 342.655c-2.46 0-4.947 0.563-7.294 1.76l-28.815 14.615c-7.943 4.034-11.124 13.756-7.083 21.705 4.035 7.956 13.762 11.144 21.719 7.103l28.794-14.622c7.956-4.035 11.15-13.756 7.109-21.712-2.857-5.615-8.524-8.849-14.43-8.849zM478.585 209.495c-2.454 0-4.947 0.555-7.301 1.752l-28.801 14.623c-7.956 4.048-11.137 13.769-7.083 21.719 4.034 7.956 13.756 11.15 21.705 7.103l28.801-14.623c7.956-4.035 11.144-13.762 7.096-21.725-2.851-5.621-8.517-8.849-14.417-8.849zM426.029 163.916l-11.038 1.726-1.977 11.005c-7.427 41.519-43.423 71.663-85.61 71.663-14.384 0-28.107-3.419-40.778-10.165l-11.031-5.859-8.161 9.437c-19.986 23.074-48.945 36.314-79.406 36.314-57.040 0-103.141-44.653-104.96-101.66l-0.364-11.493-11.084-3.101c-37.465-10.462-63.62-44.911-63.62-83.764 0-44.448 33.258-82.594 77.396-87.468l5.159-1.534h321.971c48.012 0 87.077 40.017 87.077 88.036 0 43.106-30.944 80.207-73.573 86.867zM282.877 270.933c14.093 5.727 29.284 8.709 44.514 8.709 32.365 0 61.974-13.088 83.526-34.581 16.394 23.881 21.963 54.811 12.248 84.466-16.587 50.492-70.941 77.971-121.401 61.411-40.116-13.173-65.624-50.221-66.14-90.212 17.512-6.52 33.629-16.592 47.252-29.793z" />
<glyph unicode="&#xe62d;" d="M448.971 445.472l-148.304-19.893c-15.859-2.136-19.575-13.135-8.26-24.45l26.632-26.619-68.409-68.415c-11.315-11.316-11.315-29.833 0-41.155l42.795-42.795c11.322-11.329 29.86-11.308 41.161 0l68.415 68.402 26.612-26.619c11.322-11.316 22.327-7.599 24.443 8.267l19.893 148.304c2.13 15.859-9.12 27.102-24.978 24.972zM491.692 114.58l-90.642 51.968c0 0-15.356 11.553-28.239-0.933 0 0-19.774-16.057-40.063-40.004l-8.743-11.395c0 0-5.099-6.474-18.881-1.481 0 0-88.745 28.457-169.487 162.873 0 0-7.070 10.197 6.931 23.847 0 0 15.171 12.188 33.338 32.531 0 0 10.019 7.857 4.385 24.093l-1.66 5.753-36.545 101.719c0 0-5.767 14.947-25.918 14.847l-27.697-3.789c0 0-91.118-11.825-79.433-122.307 0 0 42.339-265.149 337.128-354.812 0 0 117.228-39.515 149.64 54.507 0 0 3.842 18.332 7.909 40.619 0 0 3.24 11.739-12.023 21.963z" />
<glyph unicode="&#xe62e;" d="M503.14 374.313l-235.745 95.219-118.147-3.981 232.386-100.093 119.589 8.075-260.744-93.394 85.245 96.594-228.477 96.072-89.247-83.844 0.239-0.145 3.637-282.833 239.389-117.988 244.957 99.147 7.777 287.515-0.86-0.344zM70.807 138.772l-17.552 88.599 17.255 7.024 16.255-60.512 144.541 39.945 0.020-16.111-160.519-58.945z" />
<glyph unicode="&#xe62f;" d="M256 475.093c-135.143 0-244.693-109.544-244.693-244.693 0-135.137 109.549-244.693 244.693-244.693 135.156 0 244.693 109.557 244.693 244.693 0 135.151-109.536 244.693-244.693 244.693zM396.123 277.428l-133.431-140.031c-3.671-3.942-9.681-2.798-13.379 1.144l-133.437 138.312c-3.664 3.928-2.275 3.148 3.095 3.148h274.057c5.37 0 6.785 1.349 3.095-2.572z" />
<glyph unicode="&#xe630;" d="M451.382 195.977l52.618 34.404-52.618 34.466 37.634 50.375-61.203 14.365 18.164 60.216-62.433-7.432-3.544 62.79-56.162-28.336-24.78 57.794-43.071-45.799-43.071 45.799-24.773-57.794-56.143 28.336-3.55-62.791-62.413 7.432 18.164-60.216-61.223-14.365 37.654-50.375-52.63-34.467 52.63-34.404-37.654-50.413 61.222-14.404-18.164-60.164 62.414 7.418 3.55-62.803 56.143 28.387 24.773-57.819 43.071 45.824 43.071-45.824 24.78 57.819 56.162-28.387 3.544 62.803 62.433-7.418-18.164 60.164 61.203 14.404-37.634 50.413zM229.13 345.165c0 14.149 11.683 25.621 26.093 25.621s26.118-11.471 26.118-25.621v-136.887c0-14.137-11.708-25.608-26.118-25.608s-26.093 11.471-26.093 25.608v136.887zM255.222 90.014c-18.018 0-32.632 14.608-32.632 32.632s14.614 32.632 32.632 32.632c18.023 0 32.644-14.608 32.644-32.632s-14.62-32.632-32.644-32.632z" />
<glyph unicode="&#xe631;" d="M117.404 478.4c8.511 0 17.109-2.764 24.324-8.445l292.283-230.342-291.145-247.822c-16.56-14.093-41.386-12.096-55.48 4.464-14.106 16.533-12.096 41.399 4.451 55.493l217.942 185.531-216.772 170.842c-17.082 13.445-20.019 38.212-6.561 55.281 7.764 9.861 19.284 14.999 30.957 14.999z" />
<glyph unicode="&#xe632;" d="M451.382 195.977l52.618 34.403-52.618 34.466 37.628 50.375-61.203 14.366 18.163 60.216-62.433-7.432-3.538 62.79-56.162-28.336-24.774 57.793-43.084-45.799-43.065 45.799-24.767-57.793-56.149 28.336-3.543-62.79-62.427 7.432 18.164-60.216-61.222-14.365 37.654-50.375-52.624-34.467 52.625-34.403-37.654-50.413 61.222-14.404-18.164-60.164 62.427 7.418 3.543-62.803 56.149 28.387 24.767-57.819 43.065 45.824 43.084-45.824 24.774 57.819 56.162-28.387 3.537 62.803 62.433-7.418-18.163 60.164 61.203 14.404-37.627 50.413zM192.158 180.037l-19.515 0.058-31.809 64.524-0.401-0.076-0.198-64.346-19.515 0.050 0.287 100.967 19.529-0.051 31.803-64.582 0.414 0.070 0.179 64.415 19.534-0.058-0.306-100.972zM271.864 265.498l-36.787 0.083-0.064-25.78 30.803-0.089-0.051-15.258-30.803 0.090-0.065-29.337 36.87-0.102-0.019-15.264-56.43 0.166 0.293 100.966 56.276-0.153-0.025-15.322zM371.236 179.585l-18.139 0.050-14.563 62.612-0.409-0.012-14.856-62.51-18.139 0.045-19.584 101.037 19.993-0.051 10.153-64.116 0.414-0.075 14.664 64.116 15.341-0.044 14.372-64.053 0.409 0.057 10.509 63.913 19.865-0.038-20.031-100.929z" />
<glyph unicode="&#xe633;" d="M503.538 396.673c0-16.202-5.541-23.804-19.217-23.804h-456.643c-13.666 0-19.217 7.602-19.217 23.804v40.415c0 16.202 5.551 23.794 19.217 23.794h456.643c13.678 0 19.217-7.593 19.217-23.794v-40.415zM503.538 210.197c0-16.202-5.541-23.805-19.217-23.805h-456.643c-13.666 0-19.217 7.603-19.217 23.805v40.415c0 16.202 5.551 23.795 19.217 23.795h456.643c13.678 0 19.217-7.593 19.217-23.795v-40.415zM503.538 23.721c0-16.202-5.541-23.805-19.217-23.805h-456.643c-13.666 0-19.217 7.603-19.217 23.805v40.414c0 16.201 5.551 23.794 19.217 23.794h456.643c13.678 0 19.217-7.593 19.217-23.794v-40.414z" />
<glyph unicode="&#xe634;" d="M479.2 425.493h-446.4c-13.703 0-24.8-4.484-24.8-18.187v-347.2c0-13.703 11.097-31.413 24.8-31.413h446.4c13.676 0 24.8 17.711 24.8 31.413v347.2c0 13.703-11.123 18.187-24.8 18.187zM87.36 74.987h-39.68v46.293h39.68v-46.293zM87.36 167.573h-39.68v39.68h39.68v-39.68zM87.36 253.547h-39.68v46.293h39.68v-46.293zM87.36 339.52h-39.68v46.293h39.68v-46.293zM354.103 242.668c-1.204-2.844-2.632-5.542-4.272-8.121-21.149-44.078-93.829-87.574-93.829-87.574s-72.68 43.496-93.823 87.581c-1.633 2.579-3.089 5.278-4.292 8.121-2.831 6.692-4.392 14.053-4.392 21.785 0 30.924 25.065 55.988 55.981 55.988 19.397 0 36.48-9.861 46.524-24.839 10.052 14.979 27.141 24.839 46.524 24.839 30.917 0 55.981-25.064 55.981-55.988 0-7.731-1.574-15.092-4.404-21.791zM464.32 74.987h-39.68v46.293h39.68v-46.293zM464.32 167.573h-39.68v39.68h39.68v-39.68zM464.32 253.547h-39.68v46.293h39.68v-46.293zM464.32 339.52h-39.68v46.293h39.68v-46.293z" />
<glyph unicode="&#xe635;" d="M278.546 212.965c-13.647 0-23.804-10.183-27.609-26.494-1.081-4.594-1.639-9.676-1.639-15.143-0.131-14.627 3.827-26.799 11.134-34.161 4.889-4.937 11.152-7.581 18.115-7.581h0.374c17.544 0 28.885 16.457 28.885 41.878 0 8.581-1.414 16.214-3.983 22.49-4.846 11.866-13.836 19.010-25.276 19.010zM504 435.827c0 23.512-19.059 42.573-42.57 42.573h-410.861c-23.511 0-42.57-19.060-42.57-42.573v-410.853c0-23.512 19.059-42.573 42.57-42.573h410.861c23.51 0 42.57 19.060 42.57 42.573v410.853zM155.647 210.329h-47.985v-29.068h45.217v-22.608h-45.217v-48.908h-29.529v123.654h77.514v-23.070zM201.786 172.83v-63.086h-28.607v84.897h28.607v-21.811zM187.746 209.406h-0.18c-8.503 0-14.436 5.37-14.436 13.202 0 8.077 5.868 13.448 14.617 13.448 8.724 0 14.462-5.237 14.625-13.465 0-7.788-6.007-13.185-14.625-13.185zM201.722 290.15l-20.124 45.943 0.595-57.478h-16.397v89.972h18.315l23.607-55.006 23.608 55.006h17.983v-89.972h-16.058l0.592 57.832-20.131-46.298h-11.99zM277.394 107.438h-0.188c-18.093 0-33.279 6.453-43.919 18.587-9.88 11.274-15.316 27.098-15.316 44.517 0 2.494 0.115 4.94 0.321 7.33 3.040 34.061 27.28 57.255 61.014 57.255 18.603 0 34.089-6.486 44.776-18.76 5.537-6.359 9.645-14.158 12.159-22.851 1.888-6.526 2.88-13.589 2.88-20.896-0-40.186-23.652-65.183-61.726-65.183zM312.521 315.416v-36.8h-16.61v36.8l-32.571 53.173h19.65l21.214-38.106 21.205 38.106h19.654l-32.542-53.173zM437.986 143.486c-1.277-17.774-15.449-35.781-52.082-35.781-13.517 0-27.209 3.228-34.819 6.669l5.319 23.327c5.858-2.606 17.607-6.884 31.602-6.884 18.137 0 20.091 9.116 20.091 13.044 0 8.154-7.073 12.006-21.906 17.085-20.349 7.328-31.538 17.345-34.016 30.503-0.344 1.868-0.522 3.808-0.522 5.806 0 22.542 19.736 37.689 49.12 37.689 12.007 0 22.402-1.777 31.671-5.438l-5.93-22.635c-8.584 3.462-17.156 5.153-26.125 5.153-13.835 0-18.765-6.252-18.765-12.097 0-8.146 7.509-10.971 23.973-17.163l0.778-0.3c21.923-8.15 31.702-19.343 31.702-36.31 0-0.896-0.025-1.784-0.092-2.668z" />
<glyph unicode="&#xe636;" d="M256 475.093c-135.15 0-244.693-109.55-244.693-244.693 0-135.137 109.543-244.693 244.693-244.693 135.137 0 244.693 109.557 244.693 244.693 0 135.143-109.557 244.693-244.693 244.693zM369.524 167.573c0-19.84-21.937-39.805-47.901-44.799-5.31-1.005-10.396-1.197-15.091-1.197-21.745 0-34.211 11.005-34.211 29.899 0 22.711 17.902 39.779 47.907 45.526 4.053 0.774 9.589 1.224 13.505 1.224 5.985 0 11.547-0.892 18.16-2.672v124.596l-152.107-40.487v-152.365c0-19.655-21.963-40.461-47.934-45.447-5.324-1.012-10.423-1.534-15.119-1.534-21.751 0-34.224 10.846-34.224 29.74 0 22.704 17.909 39.687 47.92 45.433 4.048 0.787 8.499 1.19 12.387 1.19 6.018 0 10.516-0.952 17.129-2.719v172.397c0 1.653 0.674 3.115 2.275 3.551l182.899 50.453c0.311 0.085 0.529 0.139 0.853 0.139 0.787 0 2.619-0.264 3.26-0.753 0.933-0.688 2.5-1.773 2.5-2.917v-209.259h-2.209z" />
<glyph unicode="&#xe637;" d="M468.407 392.427h-416.951c-21.579 0-43.456-12.526-43.456-34.111v-247.571c0-21.586 21.877-42.371 43.456-42.371h416.951c21.599 0 35.593 20.786 35.593 42.371v247.571c0 21.586-13.993 34.111-35.593 34.111zM74.133 108.053h-33.067v39.68h33.067v-39.68zM74.133 180.8h-33.067v33.067h33.067v-33.067zM74.133 253.547h-33.067v33.067h33.067v-33.067zM74.133 313.067h-33.067v39.68h33.067v-39.68zM346.127 223.727l-120.448-72.853c-1.951-1.177-4.16-1.772-6.363-1.772-2.083 0-4.471 0.529-6.349 1.574-3.875 2.183-6.567 6.289-6.567 10.72v145.811c0 4.431 2.691 8.537 6.567 10.714 3.875 2.189 8.782 2.11 12.585-0.192l120.521-72.925c3.677-2.242 5.945-6.23 5.945-10.548 0.007-4.299-2.189-8.293-5.892-10.529zM470.933 108.053h-39.68v39.68h39.68v-39.68zM470.933 180.8h-39.68v33.067h39.68v-33.067zM470.933 253.547h-39.68v33.067h39.68v-33.067zM470.933 313.067h-39.68v39.68h39.68v-39.68z" />
<glyph unicode="&#xe638;" d="M503.724 296.461c0 21.885-17.753 39.635-39.635 39.635h-416.178c-21.884 0-39.636-17.751-39.636-39.635v-132.12c0-21.885 17.751-39.638 39.636-39.638h416.178c21.882 0 39.635 17.753 39.635 39.638v132.12zM124.341 181.707c-29.183 0-52.849 23.657-52.849 52.847 0 29.192 23.665 52.849 52.849 52.849 29.192 0 52.849-23.663 52.849-52.849 0-29.185-23.657-52.847-52.849-52.847zM263.072 181.707c-29.19 0-52.851 23.657-52.851 52.847 0 29.192 23.662 52.849 52.851 52.849 29.183 0 52.847-23.663 52.847-52.849 0-29.185-23.663-52.847-52.847-52.847zM401.798 181.707c-29.187 0-52.849 23.657-52.849 52.847 0 29.192 23.662 52.849 52.849 52.849 29.183 0 52.849-23.663 52.849-52.849 0-29.185-23.665-52.847-52.849-52.847z" />
<glyph unicode="&#xe639;" d="M245.293 263.745l62.516 62.509-62.509 62.503c-11.825 11.805-11.825 31.030 0 42.835 11.812 11.811 31.029 11.818 42.834 0l62.516-62.509 62.503 62.516c11.812 11.805 31.010 11.812 42.841 0 11.812-11.811 11.812-31.043 0-42.841l-62.522-62.516 62.503-62.496c11.832-11.819 11.832-31.043 0.020-42.848-11.818-11.818-31.029-11.818-42.848 0.026l-62.489 62.489-62.516-62.516c-11.805-11.818-31.036-11.818-42.834 0-11.851 11.819-11.825 31.024-0.013 42.848zM491.692 111.155l-90.623 51.974c0 0-15.356 11.547-28.245-0.939 0 0-19.774-16.057-40.070-40.004l-8.769-11.395c0 0-5.099-6.474-18.875-1.488 0 0-88.731 28.464-169.473 162.873 0 0-7.056 10.197 6.937 23.848 0 0 15.171 12.189 33.317 32.531 0 0 10.039 7.856 4.392 24.092l-1.66 5.76-36.552 101.727c0 0-5.767 14.947-25.911 14.847l-27.697-3.789c0 0-91.112-11.832-79.433-122.314 0 0 42.332-265.155 337.135-354.825 0 0 117.234-39.521 149.64 54.514 0 0 3.822 18.332 7.889 40.619 0.013 0 3.267 11.752-12.003 21.969z" />
<glyph unicode="&#xe63a;" d="M118.257 265.312c0 30.639-2.023 59.54 0.41 88.043 5.695 66.741 61.061 120.633 125.555 124.728 70.789 4.503 132.471-39.733 146.307-108.115 5.112-25.303 3.32-52.013 4.471-78.097 0.37-8.379 0.046-16.804 0.046-26.565 11.93 0 22.875 0.079 33.827-0.013 14.132-0.159 19.661-5.443 19.661-19.198 0.060-81.49 0.060-162.973 0-244.449 0-14.252-5.060-19.225-19.245-19.225-115.396-0.026-230.799-0.026-346.195-0.013-14.761 0.013-19.621 4.927-19.629 19.979-0.033 80.755-0.033 161.498 0 242.247 0.007 15.389 5.165 20.555 20.462 20.654 10.594 0.085 21.203 0.026 34.329 0.026zM174.504 266.773c55.043 0 111.164 0 167.912 0 0 33.067 0.873 51.861-0.178 77.548-1.68 41.009-36.096 76.027-75.868 78.91-44.349 3.207-85.207-23.96-91.065-66.028-4.127-29.495-0.8-57.364-0.8-90.431z" />
<glyph unicode="&#xe63b;" d="M504 220.844c0-22.207-14.649-46.657-36.863-46.657h-415.568c-22.201 0-43.569 24.45-43.569 46.657v20.105c0 22.201 21.367 39.052 43.569 39.052h415.568c22.214 0 36.863-16.851 36.863-39.052v-20.105zM378.347 113.595c0-7.394-4.339-18.769-11.752-18.769h-140.758c-7.4 0-19.436 11.375-19.436 18.769v13.405c0 7.394 12.036 7.507 19.436 7.507h140.758c7.413 0 11.752-0.113 11.752-7.507v-13.405zM166.72 113.595c0-7.394-0.503-18.769-7.91-18.769h-93.837c-7.401 0-17.294 11.375-17.294 18.769v13.405c0 7.394 9.893 7.507 17.294 7.507h93.837c7.407 0 7.91-0.113 7.91-7.507v-13.405zM470.933 113.595c0-7.394-3.095-18.769-10.502-18.769h-26.81c-7.401 0-15.594 11.375-15.594 18.769v13.405c0 7.394 8.194 7.507 15.594 7.507h26.81c7.407 0 10.502-0.113 10.502-7.507v-13.405zM470.933 33.164c0-7.394-3.095-17.697-10.502-17.697h-140.758c-7.394 0-14.073 10.303-14.073 17.697v13.405c0 7.394 6.68 8.577 14.073 8.577h140.759c7.407 0 10.502-1.184 10.502-8.577v-13.405zM166.72 33.164c0-7.394-0.503-17.697-7.91-17.697h-93.837c-7.401 0-17.294 10.303-17.294 17.697v13.405c0 7.394 9.893 8.577 17.294 8.577h93.837c7.407 0 7.91-1.184 7.91-8.577v-13.405zM265.92 33.164c0-7.394-5.866-17.697-13.273-17.697h-26.81c-7.4 0-19.436 10.303-19.436 17.697v13.405c0 7.394 12.036 8.577 19.436 8.577h26.81c7.407 0 13.273-1.184 13.273-8.577v-13.405zM47.68 348.191c0 7.4 9.893 11.169 17.294 11.169h140.758c7.407 0 7.281-3.769 7.281-11.169v-13.405c0-7.401 0.125-15.104-7.288-15.104h-140.751c-7.401 0-17.294 7.704-17.294 15.104v13.405zM351.893 348.191c0 7.4 7.301 11.169 14.702 11.169h93.837c7.407 0 10.502-3.769 10.502-11.169v-13.405c0-7.401-3.095-15.104-10.502-15.104h-93.837c-7.401 0-14.702 7.704-14.702 15.104v13.405zM252.693 348.191c0 7.4 12.665 11.169 20.064 11.169h26.81c7.407 0 12.644-3.769 12.644-11.169v-13.405c0-7.401-5.238-15.104-12.644-15.104h-26.81c-7.401 0-20.065 7.704-20.065 15.104v13.405zM305.6 428.621c0 7.401 6.68 10.099 14.073 10.099h140.759c7.407 0 10.502-2.699 10.502-10.099v-13.405c0-7.4-3.095-16.176-10.502-16.176h-140.759c-7.394 0-14.073 8.776-14.073 16.176v13.405zM265.92 412.445c0-7.407-8.3-13.405-18.544-13.405h-88.566c-10.244 0-18.544 5.999-18.544 13.405v12.87c0 7.407 8.3 13.405 18.544 13.405h88.565c10.244 0 18.544-5.998 18.544-13.405v-12.87zM47.68 428.621c0 7.401 9.893 10.099 17.294 10.099h26.811c7.407 0 8.802-2.699 8.802-10.099v-13.405c0-7.4-1.395-16.176-8.802-16.176h-26.811c-7.401 0-17.294 8.776-17.294 16.176v13.405z" />
<glyph unicode="&#xe63c;" d="M255.974 475.093c-134.899 0-244.667-109.788-244.667-244.707 0-134.912 109.768-244.68 244.667-244.68 134.932 0 244.707 109.768 244.707 244.68 0 134.919-109.775 244.706-244.707 244.706zM284.034 81.6c-2.169 13.227-11.5 24.199-24.728 26.671v118.822h100.172c2.143-13.227 10.945-23.319 22.201-25.898-3.485-44.257-15.039-79.916-32.127-119.596h-65.519zM162.435 81.6c-20.038 46.293-32.432 85.973-33.212 145.493h123.471v-118.571c-19.84-1.964-23.987-13.696-26.235-26.923h-64.024zM359.479 233.707h-100.172v125.653h98.38c12.632-26.453 21.089-64.413 24.013-101.257-11.269-2.585-20.058-4.556-22.221-24.397zM259.307 372.587v73.461c6.613-0.152 13.009 0.952 18.881 0.324 29.363-10.807 56.022-34.105 74.466-73.785h-93.347zM252.693 446.048v-73.461h-73.891c-1.038 13.227-4.577 11.825-9.696 16.315 17.28 28.094 40.222 47.748 64.705 56.755 5.873 0.628 12.268 0.238 18.881 0.391zM149.836 336.332c13.941 0 25.587 9.801 28.549 23.028h74.308v-125.653h-123.484c0.536 39.68 6.435 71.695 16.487 101.792 1.363-0.198 2.738 0.833 4.14 0.833zM118.376 227.093c0.767-59.52 12.651-99.2 32.127-145.493h-53.872c-33.9 46.293-54.956 85.973-56.292 145.493h78.037zM392.512 200.765c12.393 1.792 22.26 13.101 24.562 26.328h54.573c-1.323-59.52-22.399-99.2-56.293-145.493h-53.865c16.527 39.68 27.591 75.591 31.024 119.166zM471.647 233.707h-54.613c-2.281 19.84-12.149 23.028-24.529 24.84-2.884 36.347-11.038 74.361-23.272 100.813h60.003c25.719-33.067 41.26-72.747 42.411-125.653zM364.425 372.587c-13.835 33.067-31.903 53.197-52.741 69.163 43.099-11.521 80.868-36.096 108.928-69.163h-56.187zM200.309 440.308c-15.052-11.527-28.649-27.908-40.256-46.75-3.181 1.191-6.613 2.956-10.218 2.956-14.715 0-26.876-4.087-28.953-23.927h-29.495c28.041 33.067 65.829 56.207 108.921 67.721zM121.28 359.36c1.871-6.613 7.155-16.381 14.304-20.363-10.495-31.202-16.659-65.611-17.208-105.291h-78.037c1.151 52.907 16.718 92.587 42.392 125.653h38.549zM156.357 74.987c12.374-19.84 27.28-39.521 43.939-52.305-35.401 9.477-67.204 32.464-92.984 52.305h49.044zM168.572 74.987h57.887c2.262-13.227 6.395-22.307 26.235-24.251v-35.99c-6.613 0.146-13.022 0.88-18.901 1.514-24.727 9.087-47.868 32.273-65.221 58.726zM259.307 14.745v36.241c13.227 2.46 22.558 10.773 24.728 24h59.401c-17.373-26.453-40.513-49.639-65.233-58.733-5.885-0.622-12.281-1.349-18.894-1.508zM355.637 74.987h49.031c-25.779-19.84-57.575-42.828-92.983-52.291 16.685 12.771 31.565 32.452 43.952 52.291z" />
<glyph unicode="&#xe63d;" d="M256 475.093c-135.143 0-244.693-109.55-244.693-244.693 0-135.137 109.549-244.693 244.693-244.693s244.693 109.557 244.693 244.693c0 135.143-109.549 244.693-244.693 244.693zM256.165 394.179c18.452 0 33.391-14.939 33.391-33.364 0-18.432-14.94-33.391-33.391-33.391-18.424 0-33.358 14.953-33.358 33.391 0 18.424 14.933 33.364 33.358 33.364zM331.459 101.44h-137.855c-10.733 0-22.941 8.214-22.941 18.94 0 10.733 9.279 18.933 15.892 18.933v1.805h46.293v112.427h-26.453v1.707c-19.84 0-19.106 11.567-19.106 22.294s9.020 22.293 19.755 22.293h61.412c10.707 0 18.279-11.521 18.319-22.208l-1.012-2.95v-133.563h39.68v-1.805c19.84 0 22.425-8.2 22.425-18.94 0-10.72-5.7-18.933-16.408-18.933z" />
<glyph unicode="&#xe63e;" d="M280.582 227.193l148.304 19.893c15.859 2.123 19.596 13.135 8.26 24.456l-26.625 26.632 68.415 68.402c11.315 11.322 11.322 29.839 0 41.155l-42.808 42.801c-11.315 11.322-29.853 11.315-41.161 0l-68.428-68.415-26.592 26.619c-11.322 11.322-22.32 7.599-24.456-8.26l-19.887-148.304c-2.13-15.865 9.113-27.108 24.978-24.978zM491.673 111.155l-90.616 51.967c0 0-15.369 11.553-28.245-0.925 0 0-19.774-16.057-40.063-40.004l-8.743-11.401c0 0-5.099-6.468-18.881-1.481 0 0-88.745 28.464-169.493 162.873 0 0-7.063 10.197 6.937 23.847 0 0 15.171 12.195 33.325 32.538 0 0 10.032 7.856 4.392 24.092l-1.667 5.754-36.545 101.713c0 0-5.767 14.947-25.911 14.847l-27.697-3.783c0 0-91.112-11.831-79.433-122.307 0 0 42.332-265.149 337.121-354.819 0 0 117.228-39.515 149.627 54.514 0 0 3.856 18.332 7.929 40.619 0-0.007 3.24 11.739-12.036 21.956z" />
<glyph unicode="&#xe63f;" d="M464.32 438.72h-416.64c-21.831 0-39.68-21.037-39.68-42.861v-24.205c11.685 6.779 25.211 7.546 39.68 7.546h416.64c14.457 0 27.974-0.768 39.68-7.546v24.205c0 21.817-17.863 42.861-39.68 42.861zM464.32 339.52h-416.64c-21.831 0-39.68-14.675-39.68-36.499v-238.080c0-21.831 17.849-42.861 39.68-42.861h416.64c21.817 0 39.68 21.031 39.68 42.854v238.080c0 21.831-17.863 36.505-39.68 36.505zM252.693 117.841c0-21.824-17.863-42.854-39.68-42.854h-112.427c-21.831 0-39.68 21.031-39.68 42.855v132.267c0 21.831 17.849 36.506 39.68 36.506h112.427c21.817 0 39.68-14.675 39.68-36.499v-132.273zM436.861 108.053h-117.929c-14.623 0-26.453 11.844-26.453 26.453s11.832 26.453 26.453 26.453h117.929c14.608 0 26.453-11.844 26.453-26.453s-11.844-26.453-26.453-26.453zM436.861 200.64h-117.929c-14.623 0-26.453 11.844-26.453 26.453s11.832 26.453 26.453 26.453h117.929c14.608 0 26.453-11.845 26.453-26.453s-11.844-26.453-26.453-26.453zM157.065 200.488c16.553 0 29.999 13.783 29.999 30.732 0 16.944-13.445 30.732-29.999 30.732-16.527 0-29.985-13.788-29.985-30.732 0-16.95 13.459-30.732 29.985-30.732zM192.188 182.592l-10.27 2.738c-6.673-5.873-15.343-9.45-24.82-9.477-9.477 0.026-18.127 3.604-24.813 9.477l-10.284-2.738c-10.951-3.048-14.536-7.645-13.65-13.637l8.194-52.966c1.21-8.161 6.111-14.549 13.649-14.549h53.793c7.553 0 12.446 6.389 13.656 14.549l8.18 52.51c0.912 5.998-2.679 11.051-13.637 14.093z" />
<glyph unicode="&#xe640;" d="M431.18 193.868c-13.365 95.973-68.263 120.125-68.263 120.125s11.097-47.636-6.924-68.977c-16.52-19.563-37.478-18.915-37.478-18.915 19.728 21.467 32.081 96.628 0 161.048-32.075 64.401-98.671 91.257-98.671 91.257 16.653-46.313 7.393-83.209 7.393-83.209-30.845-89.26-112.856-118.101-142.319-207.731-15.045-45.851 0.040-102.692 39.945-150.592 21.533-25.858 52.411-41.155 86.648-48.839-16.692 27.822-29.436 67.945-20.118 115.085 16.236 82.283 61.299 130.607 61.299 130.719v-0.132h-1.269c0.1 0 44.421-48.311 60.657-130.587 9.959-50.453-6.058-92.871-24.357-120.779 61.709 7.433 158.805 101.428 143.457 211.528z" />
<glyph unicode="&#xe641;" d="M493.227 326.385l-202.169 88.103c-6.514 2.368-29.515 11.005-37.22 11.005-5.893 0-34.284-11.184-39.713-13.359l-195.345-85.749c-10.197-5.8-11.924-14.582-10.197-21.904 2.4-7.976 9.979-11.256 19.311-11.256h31.552l-0.026-229.212c0-6.368 2.547-16.692 6.448-21.163 3.876-4.351 8.498-6.653 15.111-7.632l-0.231 0.086h4.279c0 0 52.305 0 119.145 0h208.591c0.668 0 13.908 0 13.908 0 7.697 0 14.007 5.753 18.716 11.077 3.915 4.49 5.707 12.678 5.707 19.033 0 0 0 168.29 0 227.81h33c9.365 0 16.937 3.28 19.324 11.256 1.713 7.327-0.007 16.096-10.192 21.904zM255.96 312.611c27.366 0 49.607-22.697 49.607-50.585 0-27.901-22.253-50.599-49.607-50.599-27.373 0-49.633 22.704-49.633 50.599-0.007 27.895 22.254 50.585 49.633 50.585zM336.649 186.573l-13.564-87.415c-1.984-13.405-10.099-24.172-22.584-24.172h-89.008c-12.48 0-20.594 10.767-22.584 24.172l-13.564 86.555c-1.495 9.861 4.444 17.882 22.577 22.901l17.016 4.709c11.051-9.649 25.388-15.423 41.063-15.476 15.674 0.060 30.011 5.978 41.049 15.627l16.996-4.457c18.147-5.033 24.086-12.579 22.605-22.445z" />
<glyph unicode="&#xe642;" d="M455.068 127.893h-56.881v-28.841c0-41.029-29.197-70.359-70.221-70.359h-142.603c-41.029 0-71.549 29.337-71.549 70.36v28.841h-55.552c-20.462 0-37.035-16.196-37.035-36.658v-74.4c0-20.488 16.58-34.435 37.035-34.435h396.807c20.449 0 35.705 13.947 35.705 34.435v74.4c0 20.462-15.257 36.658-35.705 36.658zM185.363 61.76h142.603c20.455 0 37.154 16.825 37.154 37.293v288.223c0 20.462-16.699 38.218-37.154 38.218h-95.113v26.712c0 13.703-9.451 24.8-23.147 24.8-13.69 0-23.147-11.111-23.147-24.8v-26.712h-1.197c-20.462 0-38.483-17.75-38.483-38.212v-288.229c0-20.468 18.021-37.293 38.483-37.293zM211.069 99.892c-13.696 0-24.793 11.137-24.793 24.873s11.097 24.866 24.793 24.866 24.8-11.13 24.8-24.866c0.007-13.743-11.111-24.873-24.8-24.873zM211.069 186.937c-13.696 0-24.793 11.137-24.793 24.873 0 13.743 11.097 24.86 24.793 24.86s24.8-11.117 24.8-24.86c0.007-13.743-11.111-24.873-24.8-24.873zM303.358 99.892c-13.69 0-24.807 11.137-24.807 24.873s11.117 24.866 24.807 24.866 24.793-11.13 24.793-24.866-11.104-24.873-24.793-24.873zM303.358 186.937c-13.69 0-24.807 11.137-24.807 24.873 0 13.743 11.117 24.86 24.807 24.86s24.793-11.117 24.793-24.86c0-13.743-11.104-24.873-24.793-24.873zM325.44 309.807c0-20.118-16.394-36.42-36.618-36.42h-65.644c-20.224 0-36.618 16.301-36.618 36.42v26.361c0 20.117 16.394 36.419 36.618 36.419h65.644c20.224 0 36.618-16.302 36.618-36.419v-26.361z" />
<glyph unicode="&#xe643;" d="M493.233 279.743l-202.17 154.712c-6.495 2.381-19.139 16.143-37.213 17.678-16.044 1.363-34.297-17.863-39.707-20.038l-195.357-152.351c-10.197-5.84-11.931-11.091-10.197-18.452 2.4-8.016 9.973-7.744 19.311-7.744h31.552l-0.039-220.793c0-6.415 1.547-11.454 4.98-16.341 6.713-9.55 20.633-7.559 20.633-7.559s42.014 0 108.148 0v185.173h119.040v-185.173h100.549c0.675 0 23.762-3.154 32.637 6.872 3.948 4.484 5.695 8.478 5.695 14.887v222.936h33.007c9.351 0 16.937-0.272 19.311 7.744 1.733 7.368 0 12.611-10.178 18.452z" />
<glyph unicode="&#xe644;" d="M28.264 234.111l172.68-0.225 14.688 47.127c1.984 6.356 7.949 10.72 14.583 10.449 6.66-0.172 12.387-4.736 14.040-11.189l21.441-83.752 30.038 125.68c1.567 6.534 7.301 11.216 14.014 11.415 6.7 0.417 12.724-4.087 14.702-10.509l31.764-103.697 3.122 6.164c2.533 5.032 7.671 8.135 13.3 8.135h110.912c3.69 6.613 7.057 12.215 9.788 18.736 6.872 16.209 10.668 34.046 10.668 52.754 0 74.797-60.625 135.461-135.428 135.461-46.955 0-88.262-23.847-112.599-60.082-24.291 36.234-65.618 60.096-112.525 60.096-74.803 0-135.447-60.644-135.447-135.447 0-18.696 3.79-36.505 10.654-52.715 2.704-6.422 5.992-12.546 9.609-18.398zM381.819 200.64l-15.667-29.502c-2.719-5.436-8.491-7.81-14.543-7.295-6.065 0.509-11.19 5.079-12.969 10.892l-26.652 87.204-31.32-130.144c-1.587-6.653-7.507-10.515-14.344-10.515-0.053 0-0.099 0-0.099 0-6.825 0-12.764 3.809-14.451 10.396l-23.339 90.781-2.341-9.437c-1.951-6.224-7.691-12.38-14.206-12.38h-0.013l-166.325 1.964c64.725-96.125 210.417-184.208 210.417-184.208s145.5 89.657 210.291 182.244h-84.439z" />
<glyph unicode="&#xe645;" d="M345.875 264.089l-16.169-1.707-14.034-68.356c0 0 13.392 0 19.099 0 8.062 0 45.255 6.779 46.637 41.049 0.972 24.271-28.775 29.012-35.534 29.012zM503.835 334.897l-349.534 0.099c-87.224 0-145.851-46.353-146.3-122.175l0.165-86.589 349.534-0.106c87.229 0 145.851 46.353 146.3 122.168l-0.165 86.602zM233.052 174.187h-45.645l9.781 46.293h-57.258l-10.105-46.293h-45.672l25.038 112.427h45.672l-9.668-46.293h57.264l9.668 46.293h45.645l-24.721-112.427zM337.735 171.554c-39.76 0-73.044-1.369-73.044-1.369l24.568 116.428c50.010 0 72.409 0 77.594 0 12.856 0 63.687-4.629 63.428-47.47-0.257-42.802-52.808-67.588-92.547-67.588z" />
<glyph unicode="&#xe646;" d="M384.848 422.299c-16.401 17.407-49.276 36.665-85.57 23.438-36.308-13.246-37.452-37.239-48.892-48.482-12.076-11.884-59.731-27.036-59.731-27.036s-46.24-19.007-63.138-17.671c-15.991 1.25-32.3 18.901-68.62 5.661-36.294-13.207-49.091-49.104-50.46-72.959-4.543-78.493 26.691-269.672 90.192-274.526 0 0 23.227-2.659 45.196 29.899 14.933 22.161 38.185 73.137 61.12 88.202 21.096 13.849 57.238 26.751 62.846 28.709 5.536 2.11 42.14 15.661 67.192 18.61 27.267 3.214 77.839-20.858 103.538-28.2 37.755-10.806 53.859 6.144 53.859 6.144 45.48 44.58-53.561 211.052-107.532 268.211zM173.314 231.505l-25.686-9.199 9.206-25.7c2.321-6.448-1.038-13.538-7.487-15.852-1.382-0.489-2.784-0.728-4.186-0.728-5.085 0-9.853 3.168-11.685 8.227l-9.192 25.68-25.692-9.185c-1.376-0.503-2.791-0.735-4.18-0.735-5.073 0-9.861 3.161-11.672 8.221-2.308 6.455 1.052 13.544 7.507 15.865l25.68 9.192-9.213 25.679c-2.288 6.448 1.052 13.538 7.499 15.859 6.455 2.295 13.544-1.045 15.846-7.493l9.213-25.686 25.686 9.213c6.448 2.308 13.531-1.059 15.839-7.506 2.321-6.448-1.031-13.551-7.48-15.852zM252.733 308.325c-3.756 10.277 1.548 21.692 11.851 25.415 10.291 3.744 21.678-1.541 25.428-11.845 3.736-10.29-1.567-21.685-11.858-25.415-10.31-3.763-21.678 1.554-25.422 11.845zM299.985 236.491c-10.303-3.75-21.665 1.554-25.428 11.851-3.763 10.291 1.56 21.692 11.844 25.415 10.291 3.75 21.699-1.555 25.435-11.838 3.729-10.303-1.56-21.692-11.851-25.428zM315.011 330.995c-3.743 10.291 1.56 21.692 11.858 25.422 10.291 3.736 21.678-1.541 25.428-11.851 3.736-10.291-1.574-21.692-11.858-25.422-10.303-3.75-21.672 1.56-25.428 11.851zM362.263 259.161c-10.291-3.743-21.652 1.555-25.415 11.851-3.763 10.284 1.555 21.685 11.837 25.415 10.297 3.75 21.685-1.541 25.435-11.845 3.736-10.284-1.555-21.685-11.858-25.422z" />
<glyph unicode="&#xe647;" d="M504 372.587c0 21.909-17.77 39.68-39.68 39.68h-416.64c-21.91 0-39.68-17.771-39.68-39.68v-290.987c0-21.909 17.77-39.68 39.68-39.68h416.64c21.909 0 39.68 17.771 39.68 39.68v290.987zM464.32 286.613h-182.276c-9.041 0-19.74 8.756-23.808 16.851l-7.242 14.583c-4.048 8.095-14.755 14.86-23.795 14.86h-179.519v28.477c0 9.040 13.796 11.203 22.836 11.203h383.652c9.041 0 10.151-2.162 10.151-11.203v-74.77z" />
<glyph unicode="&#xe648;" d="M421.333 445.333h-314.921c0 19.84-15.284 32.28-32.669 32.28s-32.676-13.313-32.676-30.706v-433.021c0-17.393 15.673-31.493 33.067-31.493s33.067 14.099 33.067 31.493v160.3h314.133c25.977 0 49.6 18.431 49.6 44.401v181.080c0 25.99-23.623 45.665-49.6 45.665z" />
<glyph unicode="&#xe649;" d="M504 24.973c0-23.415-19.158-42.573-42.573-42.573h-410.853c-23.415 0-42.573 19.158-42.573 42.573v410.853c0 23.415 19.158 42.573 42.573 42.573h410.853c23.414 0 42.573-19.158 42.573-42.573v-410.853zM151.446 193.825l-0.595-98.327h10.115v111.566h-13.536l-37.784-81.072-37.784 81.072h-13.537v-111.567h10.115l-0.595 98.327 37.635-81.221h8.331l37.636 81.221zM238.47 132.685c0 22.76-5.653 38.677-31.239 38.677-25.438 0-31.239-15.918-31.239-38.677s5.802-38.676 31.239-38.676c25.585 0 31.239 15.916 31.239 38.676zM228.056 132.685c0-16.81-1.488-29.454-20.826-29.454-19.636 0-20.826 12.644-20.826 29.454s1.19 29.454 20.826 29.454c19.338 0 20.826-12.645 20.826-29.454zM283.246 171.362c-6.842 0-14.429-1.933-20.826-6.099v41.8h-10.413v-111.567h5.801l2.231 6.099c7.736-4.909 15.173-7.587 23.207-7.587 23.95 0 30.495 17.256 30.495 38.676s-6.545 38.677-30.495 38.677zM270.452 160.652c3.421 1.041 7.438 1.488 12.794 1.488 17.851 0 20.081-14.727 20.081-29.454s-2.231-29.454-20.081-29.454c-9.669 0-15.025 1.635-20.826 4.76v49.387c2.231 1.19 4.908 2.232 8.032 3.273zM326.533 197.394c0-4.611 3.57-8.182 8.181-8.182s8.181 3.57 8.181 8.182c0 4.611-3.57 8.182-8.181 8.182s-8.181-3.57-8.181-8.182zM346.019 94.008v8.479c-4.611 0-6.248 1.488-6.248 6.694v60.692h-10.115v-59.503c0-11.899 5.653-16.363 16.363-16.363zM377.406 94.008v8.479c-4.611 0-6.248 1.488-6.248 6.694v97.882h-10.115v-96.692c0-11.899 5.652-16.363 16.363-16.363zM388.561 132.685c0-21.421 6.099-38.676 31.239-38.676 7.289 0 16.215 0.744 24.544 4.464v8.925c-7.289-3.124-13.834-4.165-24.544-4.165-16.81 0-20.231 11.752-20.826 24.694h49.090v4.76c0 21.421-2.976 38.677-28.264 38.677-25.14-0-31.239-17.257-31.239-38.678zM419.8 162.139c17.107 0 17.851-12.495 17.851-25.735h-38.676c0.447 13.387 3.57 25.735 20.826 25.735zM276.918 230.518c42.707 0 69.525 28.472 69.525 73.244 0 37.138-22.697 70.349-67.464 70.349-42.708 0-69.118-32.184-69.118-72.621 0-38.58 23.728-70.972 66.844-70.972h0.212zM278.156 260.022c-17.954 0-29.090 17.328-28.883 42.294 0 24.141 10.929 42.293 28.883 42.293 18.165 0 28.884-18.153 28.884-42.087 0-25.172-10.516-42.5-28.474-42.5h-0.409zM58.493 232.792h37.345v52.811h48.897v30.123h-48.897v25.585h51.988v30.533h-89.334v-139.052zM197.844 232.792v97.144h-36.561v-97.143h36.561zM179.66 340.235c11.316 0 18.586 7.676 18.586 17.17-0.201 10.098-7.27 17.371-18.586 17.371-11.308 0-18.58-7.274-18.58-17.371 0-9.494 7.071-17.17 18.379-17.17h0.201zM353.45 239.186c7.839-4.131 24.138-8.459 40.848-8.459 40.647 0 59.214 20.421 59.214 44.357 0 19.395-11.135 32.597-36.101 41.881-17.539 6.603-24.97 9.285-24.97 16.298 0 6.193 6.185 10.32 17.533 10.32 13.825 0 24.148-3.923 30.125-6.602l7.841 29.915c-9.067 3.921-21.041 7.015-37.546 7.015-35.070 0-55.914-18.984-55.914-43.532 0-20.635 15.683-33.425 39.203-41.884 15.673-5.364 21.868-9.076 21.868-15.885 0-7.017-6.195-11.349-18.976-11.349-14.029 0-27.651 4.333-36.115 8.662l-7.009-30.737z" />
<glyph unicode="&#xe64a;" d="M504 304.793c0 74.81-60.631 135.441-135.435 135.441-46.896 0-88.242-23.847-112.565-60.089-24.304 36.235-65.644 60.089-112.532 60.089-74.829 0-135.468-60.637-135.468-135.441 0-18.696 3.796-36.505 10.648-52.721 2.904-6.871 6.415-13.405 10.377-19.642 51.141-106.647 226.97-211.872 226.97-211.872s175.842 105.219 226.989 211.872c3.975 6.237 7.466 12.777 10.37 19.642 6.872 16.216 10.647 34.025 10.647 52.721z" />
<glyph unicode="&#xe64b;" d="M256-14.293c-135.131 0-244.693 109.557-244.693 244.687 0 135.15 109.563 244.7 244.693 244.7 135.144 0 244.693-109.549 244.693-244.7 0-135.131-109.549-244.687-244.693-244.687zM406.003 316.651c-11.276 8.875-27.604 6.944-36.493-4.339l-112.685-142.98-122.387 143.755c-9.278 10.919-25.686 12.249-36.612 2.937-10.905-9.298-12.235-25.687-2.916-36.605l163.469-192.052 151.941 192.798c3.743 4.768 5.562 10.449 5.562 16.057 0 7.712-3.392 15.303-9.88 20.428z" />
<glyph unicode="&#xe64c;" d="M498.061 292.228c-3.743 1.845-6.19 0.172-11.54-1.231l-215.436-77.264c-3.148-1.177-10.383-2.996-15.052-2.996-4.775 0-9.417 0.846-13.762 2.341l-216.739 77.919c-5.37 1.402-7.823 3.075-11.573 1.231-3.611-1.733-5.959-5.311-5.959-9.279v-166.405c0-27.327 22.253-48.171 49.639-48.171h396.76c27.392 0 49.6 20.858 49.6 48.171v166.405c-0.199 3.968-2.315 7.546-5.939 9.279zM479.161 392.427h-446.361c-13.703 0-24.8-9.761-24.8-23.431 0 0 0-15.845 0-20.521 0-18.055 1.62-16.779 28.212-26.374 0.953-0.351 203.221-73.362 203.221-73.362 5.37-1.528 11.184-3.743 16.547-3.849 5.37 0.106 11.176 2.321 16.533 3.849 0 0 202.308 73.017 203.235 73.362 26.612 9.602 28.252 8.32 28.252 26.374 0 4.683 0 20.521 0 20.521 0 13.663-11.151 23.431-24.839 23.431z" />
<glyph unicode="&#xe64d;" d="M197.505 102.346l231.44 231.513-69.844 69.387-231.427-231.493zM162.177 66.971l-69.844 69.4-84.333-153.971zM425.228 469.425l-30.527-30.534 69.851-69.401 30.514 30.527c11.256 11.269 11.971 28.927 1.601 39.224l-32.101 31.909c-10.37 10.31-28.080 9.524-39.336-1.726z" />
<glyph unicode="&#xe64e;" d="M381.653 478.4h-251.307c-21.831 0-38.258-17.796-36.512-39.548l33.351-416.892c1.732-21.764 21.011-39.561 42.841-39.561h171.947c21.817 0 41.101 17.796 42.848 39.561l33.344 416.892c1.74 21.752-14.695 39.548-36.512 39.548zM186.56 382.837c0 20.534 15.343 28.688 34.065 18.127l97.296-54.911c18.709-10.561 18.723-27.848 0.013-38.41l-97.308-54.917c-18.716-10.561-34.065-2.4-34.065 18.113v111.997zM232.853 83.875c0-14.608-11.845-26.453-26.453-26.453s-26.453 11.844-26.453 26.453v72.747c0 14.608 11.845 26.453 26.453 26.453s26.453-11.844 26.453-26.453v-72.747zM325.44 83.875c0-14.608-11.844-26.453-26.453-26.453s-26.453 11.844-26.453 26.453v72.747c0 14.608 11.844 26.453 26.453 26.453s26.453-11.844 26.453-26.453v-72.747z" />
<glyph unicode="&#xe64f;" d="M256 475.093c-135.156 0-244.693-109.536-244.693-244.693 0-135.124 109.537-244.693 244.693-244.693s244.693 109.57 244.693 244.693c0 135.156-109.536 244.693-244.693 244.693zM377.183 202.743l-95.569-111.104c-14.093-16.288-37.154-16.613-51.247-0.337l-95.576 111.62c-14.093 16.288-7.989 30.785 13.537 30.785h51.459v109.186c0 21.52 14.655 42.921 36.181 42.921h39.145c21.533 0 37.101-21.401 37.101-42.921v-109.186h51.432c21.539 0 27.637-14.662 13.538-30.964z" />
<glyph unicode="&#xe650;" d="M256 475.093c-135.143 0-244.693-109.557-244.693-244.693 0-135.15 109.549-244.693 244.693-244.693s244.693 109.543 244.693 244.693c0 135.137-109.549 244.693-244.693 244.693zM246.080 305.6v-24.668c0-19.179-13.227-35.435-26.453-41.472v-204.154h-33.067v204.16c-19.84 6.052-26.453 22.3-26.453 41.472v95.84c0 2.996 0.701 9.034 3.71 9.034h8.723c2.996 0 7.407-6.037 7.407-9.034v-70.326h13.227v70.385c0 2.956 1.871 8.974 4.821 8.974h8.862c2.956 0 6.157-6.018 6.157-8.974v-70.385h13.227v70.247c0 3.043 3.115 9.113 6.15 9.113h8.571c3.055 0 5.119-6.071 5.119-9.113v-71.1zM347.211 187.413h-34.998v-152.107h-26.453v350.507h32.088c5.397 0 9.781-6.885 9.781-12.288l29.363-176.245c0.007-5.389-4.378-9.867-9.781-9.867z" />
<glyph unicode="&#xe651;" d="M126.088 419.846c0-32.609-26.435-59.044-59.044-59.044s-59.044 26.435-59.044 59.044c0 32.609 26.435 59.044 59.044 59.044s59.044-26.435 59.044-59.044zM504 419.846c0-32.613-26.438-59.051-59.050-59.051s-59.050 26.438-59.050 59.051c0 32.612 26.438 59.050 59.050 59.050s59.050-26.438 59.050-59.050zM315.044 419.846c0-32.613-26.438-59.051-59.050-59.051s-59.050 26.438-59.050 59.051c0 32.612 26.438 59.050 59.050 59.050s59.050-26.438 59.050-59.050zM126.088 230.889c0-32.609-26.435-59.044-59.044-59.044s-59.044 26.435-59.044 59.044c0 32.609 26.435 59.044 59.044 59.044s59.044-26.435 59.044-59.044zM504 230.896c0-32.613-26.438-59.050-59.050-59.050s-59.050 26.438-59.050 59.051c0 32.612 26.438 59.050 59.050 59.050s59.050-26.438 59.050-59.050zM315.044 230.896c0-32.613-26.438-59.050-59.050-59.050s-59.050 26.438-59.050 59.051c0 32.612 26.438 59.050 59.050 59.050s59.050-26.438 59.050-59.050zM126.081 40.961c0-32.605-26.432-59.037-59.037-59.037s-59.037 26.432-59.037 59.037c0 32.605 26.432 59.037 59.037 59.037s59.037-26.432 59.037-59.037zM504.007 40.954c0-32.617-26.44-59.057-59.057-59.057s-59.057 26.44-59.057 59.057c0 32.617 26.44 59.057 59.057 59.057s59.057-26.44 59.057-59.057zM315.050 40.954c0-32.617-26.44-59.057-59.057-59.057s-59.057 26.44-59.057 59.057c0 32.617 26.44 59.057 59.057 59.057s59.057-26.44 59.057-59.057z" />
<glyph unicode="&#xe652;" d="M497.387 129.857v75.009l-32.584 111.296c-2.645 11.137-15.337 23.358-25.216 23.358h-107.533v49.243c0 13.14-1.289 23.504-14.443 23.504h-276.094c-13.14 0-26.903-10.363-26.903-23.504v-259.124c0-2.248-6.785-7.671-6.785-13.432 0-7.877 7.943-14.761 15.826-14.761h43.972c3.201 33.067 32.828 62.787 68.825 62.787 35.969 0 65.597-29.721 68.825-62.787h102.117c3.214 33.067 32.836 62.787 68.818 62.787s65.611-29.727 68.839-62.793h43.952c7.889 0 15.7 6.885 15.7 14.761 0 5.945-0.701 11.5-7.315 13.656zM365.12 227.093v85.973h68.951l25.765-85.973h-94.716zM185.826 96.056c0-27.267-22.102-49.382-49.376-49.382-27.273 0-49.401 22.115-49.401 49.382 0 27.28 22.128 49.408 49.401 49.408 27.273-0.007 49.375-22.128 49.375-49.408zM425.599 96.056c0-27.276-22.111-49.389-49.389-49.389s-49.389 22.111-49.389 49.389c0 27.276 22.111 49.389 49.389 49.389s49.389-22.111 49.389-49.389z" />
<glyph unicode="&#xe653;" d="M424.601 418.88h-94.267l-13.703 50.248c-1.845 4.934-6.567 9.272-11.825 9.272h-97.613c-5.264 0-9.987-4.338-11.838-9.272l-13.683-50.248h-94.279c-13.015 0-23.556-6.832-23.556-19.84s10.548-19.84 23.556-19.84h337.207c13.009 0 23.557 6.832 23.557 19.84 0.007 13.002-10.548 19.84-23.557 19.84zM208.681 418.88l7.281 39.68h80.081l7.275-39.68h-94.637zM84.067 7.477c0-13.914 14.701-25.077 28.616-25.077h286.615c13.935 0 18.729 10.952 18.729 24.866v325.64h-337.28v-325.64l3.32 0.212zM332.053 268.605c0 10.27 9.298 18.591 19.84 18.591 10.555 0 19.84-8.32 19.84-18.591v-217.116c0-10.264-9.298-18.591-19.84-18.591s-19.84 8.327-19.84 18.591v217.116zM232.853 268.605c0 10.27 9.298 18.591 19.84 18.591 10.528 0 19.84-8.32 19.84-18.591v-217.116c0-10.264-9.312-18.591-19.84-18.591-10.542 0-19.84 8.327-19.84 18.591v217.116zM133.653 268.605c0 10.27 5.992 18.591 16.533 18.591s16.533-8.32 16.533-18.591v-217.116c0-10.264-5.992-18.591-16.533-18.591s-16.533 8.332-16.533 18.591v217.116z" />
<glyph unicode="&#xe654;" d="M410.543 437.311l52.37-52.369-190.938-190.938-52.37 52.37 190.938 190.937zM205.428 232.219l-56.24-108.624 108.624 56.24zM498.173 448.495l-24.079 24.072c-7.81 7.784-20.528 7.784-28.312 0l-21.089-21.096 52.377-52.391 21.103 21.096c7.777 7.784 7.777 20.521 0 28.318zM391.573 68.373c0-18.187-14.88-33.067-33.067-33.067h-264.533c-18.18 0-33.067 14.88-33.067 33.067v264.533c0 18.187 14.887 33.067 33.067 33.067h189.115l52.907 52.907h-242.022c-47.404 0-85.973-38.569-85.973-85.973v-264.533c0-47.404 38.569-85.973 85.973-85.973h264.533c47.404 0 85.973 38.569 85.973 85.973v242.009l-52.907-52.9v-189.108z" />
<glyph unicode="&#xe655;" d="M327.014 329.653c0 39.667-31.48 71.933-70.174 71.933-38.708 0-70.207-32.267-70.207-71.933 0-39.66 31.5-71.927 70.207-71.927 38.701-0.007 70.174 32.266 70.174 71.927zM338.997 235.969l-24.053 6.388c-15.594-13.749-35.858-22.122-58.045-22.161-22.188 0.039-42.445 8.412-58.078 22.161l-24.053-6.388c-25.64-7.149-34.025-17.929-31.936-31.956l19.159-122.684c2.837-19.12 14.317-32.796 31.969-32.796h125.872c17.664 0 29.125 13.69 31.949 32.796l19.159 122.248c2.103 14.027-6.283 25.243-31.942 32.392zM421.36 305.892c27.961 0 50.685 23.299 50.685 51.941 0 28.636-22.736 51.941-50.685 51.941s-50.685-23.305-50.685-51.941c0-28.642 22.736-51.941 50.685-51.941zM480.708 285.079l-17.367 4.609c-11.283-9.92-25.918-15.971-41.928-15.997-16.011 0.026-30.652 6.077-41.928 15.997l-17.38-4.609c-18.511-5.171-24.575-12.955-23.067-23.067l0.311-1.832 23.074-6.131c42.371-11.811 48.112-33.543 45.447-51.253l-7.889-48.449h66.88c12.764 0 21.043 7.579 23.081 21.368l13.835 87.137c1.508 10.112-4.55 17.056-23.067 22.228zM90.633 305.892c-27.948 0-50.684 23.299-50.684 51.941 0 28.636 22.736 51.941 50.684 51.941 27.941 0 50.684-23.305 50.684-51.941 0-28.642-22.743-51.941-50.684-51.941zM31.292 285.079l17.373 4.609c11.282-9.92 25.911-15.971 41.921-15.997 16.011 0.026 30.653 6.077 41.928 15.997l17.36-4.609c18.524-5.171 24.576-12.955 23.081-23.067l-0.291-1.832-23.073-6.131c-42.365-11.811-48.112-33.543-45.46-51.253l7.889-48.449h-66.88c-12.751 0-21.037 7.579-23.073 21.368l-13.841 87.137c-1.514 10.112 4.537 17.056 23.067 22.228z" />
<glyph unicode="&#xe656;" d="M499.371 259.644c-3.168 1.607-5.039 0.145-9.55-1.077l-181.338-67.529c-2.639-1.019-8.697-2.619-12.632-2.619-4.027 0-7.909 0.74-11.573 2.043l-25.521 9.529 15.753-55.221c9.444-33.1-9.827-68.276-42.987-77.746l-16.625-5.264h248.053c23.060 0 41.049 20.449 41.049 44.336v145.434c0 3.465-1.567 6.6-4.629 8.114zM483.803 346.133h-267.377l32.656-113.34c19.357-7.248 32.815-11.732 32.815-11.732 4.524-1.336 9.424-2.989 13.941-3.082 4.517 0.099 9.411 2.163 13.921 3.498 0 0 170.016 63.899 170.809 64.203 22.419 8.392 23.431 7.347 23.431 23.127 0 4.081 0 17.936 0 17.936 0 11.95-8.663 19.39-20.197 19.39zM110.844 65.867l111.745 31.863c16.011 4.577 25.409 21.401 20.858 37.405l-64.255 225.231c-4.549 15.985-21.407 25.343-37.439 20.76l-72.654-20.713-6.184 21.659c-3.042 10.693-14.232 16.897-24.959 13.835-10.733-3.056-16.956-14.225-13.908-24.926l6.184-21.659-0.212-0.059c-16.037-4.583-25.422-21.401-20.865-37.399l64.242-225.244c4.543-15.985 21.407-25.316 37.444-20.752zM122.504 101.334c-10.727-3.062-21.91 3.161-24.985 13.901-3.061 10.747 3.161 21.909 13.895 24.985 10.727 3.055 21.904-3.161 24.985-13.908 3.069-10.727-3.161-21.909-13.895-24.978zM103.113 169.365c-10.74-3.062-21.93 3.154-24.985 13.875-3.061 10.747 3.168 21.923 13.881 24.992 10.753 3.055 21.916-3.161 24.992-13.895 3.049-10.72-3.174-21.909-13.888-24.972zM194.827 121.968c-10.733-3.055-21.91 3.161-24.985 13.908-3.061 10.727 3.168 21.909 13.895 24.972 10.74 3.062 21.917-3.148 24.978-13.895 3.069-10.74-3.141-21.93-13.888-24.985zM175.423 189.992c-10.747-3.055-21.923 3.161-24.972 13.901-3.076 10.74 3.141 21.904 13.881 24.972 10.733 3.061 21.91-3.154 24.978-13.901 3.076-10.72-3.168-21.904-13.888-24.972zM50.245 280.159c-4.563 15.985 4.821 32.816 20.858 37.385l53.125 15.164c16.037 4.577 32.882-4.781 37.438-20.765l5.317-18.643c4.564-15.984-4.821-32.815-20.858-37.392l-53.125-15.151c-16.031-4.577-32.888 4.768-37.444 20.766l-5.31 18.637z" />
<glyph unicode="&#xe657;" d="M500.693 230.4c0-135.131-109.549-244.693-244.693-244.693s-244.693 109.563-244.693 244.693c0 135.143 109.556 244.693 244.693 244.693s244.693-109.563 244.693-244.693zM178.941 380.39c-8.875-11.269-6.937-27.597 4.325-36.472l143.007-112.691-143.774-122.4c-10.919-9.285-12.235-25.692-2.923-36.599 9.298-10.905 25.679-12.248 36.605-2.93l192.037 163.495-192.785 151.922c-4.775 3.75-10.449 5.575-16.064 5.575-7.697 0.007-15.284-3.387-20.428-9.9z" />
<glyph unicode="&#xe658;" d="M256 475.093c-135.137 0-244.693-109.557-244.693-244.693 0-135.144 109.556-244.693 244.693-244.693 135.144 0 244.693 109.549 244.693 244.693 0 135.137-109.549 244.693-244.693 244.693zM362.098 126.345c-11.5-11.5-30.19-11.493-41.697 0.013l-60.81 60.803-60.816-60.816c-11.488-11.5-30.203-11.5-41.697-0.007-11.488 11.488-11.488 30.197 0.007 41.697l60.823 60.823-60.816 60.809c-11.494 11.488-11.507 30.177 0 41.677 11.475 11.494 30.184 11.494 41.684 0l60.81-60.816 60.816 60.823c11.481 11.493 30.183 11.493 41.69 0 11.488-11.493 11.488-30.196 0-41.684l-60.823-60.823 60.81-60.81c11.514-11.5 11.5-30.209 0.020-41.69z" />
<glyph unicode="&#xe659;" d="M256 475.093c-135.137 0-244.693-109.563-244.693-244.693 0-135.144 109.556-244.693 244.693-244.693s244.693 109.549 244.693 244.693c0 135.131-109.557 244.693-244.693 244.693zM256 37.912c-106.329 0-192.481 86.178-192.481 192.488s86.159 192.481 192.481 192.481c106.303 0 192.488-86.172 192.488-192.481s-86.185-192.488-192.488-192.488zM350.663 152.296c-6.197-7.202-14.94-10.853-23.728-10.853-7.262 0-14.529 2.487-20.462 7.586l-89.359 54.659c-6.858 5.945-10.714 14.615-10.714 23.716v105.219c0 17.3 12.466 31.314 29.76 31.314s29.76-14.014 29.76-31.314v-90.887l80.055-45.268c13.094-11.296 16.004-31.076 4.689-44.171z" />
<glyph unicode="&#xe65a;" d="M256 475.093c-135.143 0-244.693-109.563-244.693-244.693 0-135.144 109.549-244.693 244.693-244.693s244.693 109.549 244.693 244.693c0 135.131-109.549 244.693-244.693 244.693zM256 37.912c-106.316 0-192.488 86.172-192.488 192.488 0 106.303 86.178 192.481 192.488 192.481 106.316 0 192.488-86.178 192.488-192.481 0-106.316-86.172-192.488-192.488-192.488zM256 383.731c-84.558 0-153.344-68.779-153.344-153.331s68.779-153.344 153.344-153.344c84.545 0 153.344 68.792 153.344 153.344s-68.798 153.331-153.344 153.331zM339.262 148.328c-5.159-5.991-12.44-9.047-19.767-9.047-6.038 0-12.096 2.070-17.023 6.329l-74.189 64.361c-5.747 4.953-8.657 12.168-8.657 19.761v87.686c0 14.417 12.036 26.103 26.453 26.103s26.453-11.685 26.453-26.103v-75.736l64.757-56.551c10.925-9.424 11.401-25.897 1.971-36.803z" />
<glyph unicode="&#xe65b;" d="M27.259 94.688l135.732 135.732-135.706 135.719c-25.66 25.633-25.66 67.37-0.013 93.003 25.633 25.633 67.389 25.667 93.029 0l135.699-135.732 135.732 135.745c25.653 25.653 67.37 25.666 93.049 0 25.6-25.647 25.633-67.403 0-93.017l-135.732-135.745 135.685-135.706c25.666-25.673 25.666-67.397 0.053-93.010-25.673-25.673-67.37-25.673-93.050 0.026l-135.726 135.673-135.732-135.705c-25.633-25.687-67.409-25.673-93.016-0.033-25.7 25.66-25.673 67.376-0.007 93.049z" />
<glyph unicode="&#xe65c;" d="M206.493 129.606c-26.592 0-48.231-21.678-48.231-48.244 0-26.586 21.639-48.238 48.231-48.238 26.652 0 48.277 21.652 48.277 48.238-0.007 26.56-21.632 48.244-48.277 48.244zM395.264 129.606c-26.632 0-48.277-21.678-48.277-48.244 0-26.592 21.639-48.277 48.277-48.277s48.277 21.678 48.277 48.277c-0.007 26.56-21.646 48.244-48.277 48.244zM449.281 134.507h-278.5c-6.037 0-11.435 5.648-13.564 11.289l-94.571 253.245h-40.176c-7.995 0-14.47 5.224-14.47 13.227 0 7.995 6.474 13.227 14.47 13.227h50.169c6.037 0 11.434-5.641 13.544-11.289l94.591-253.245h268.501c8.002 0 14.476-5.224 14.476-13.227 0.007-7.995-6.461-13.227-14.469-13.227zM482.084 385.813h-358.74c0 0 65.036-175.524 66.133-178.772 4.9-14.516 11.421-19.628 23.662-19.628h240.037c0 0 22.843 83.037 48.264 159.923 0.84 2.547 2.56 11.997 2.56 14.284 0 12.447-9.457 24.192-21.916 24.192zM415.183 325.897l-129.178-95.437c-3.644-2.659-8.108-3.293-12.149-2.241-0.377 0.092-0.721 0.159-1.077 0.284-0.264 0.086-0.496 0.212-0.753 0.298-2.248 0.873-4.345 2.281-5.972 4.292l-29.873 35.117c-5.053 6.203-4.12 15.296 2.083 20.343 6.177 5.053 15.291 4.127 20.349-2.070l20.852-24.939 118.716 87.745c6.474 4.696 15.502 3.267 20.204-3.188s3.274-15.501-3.201-20.204z" />
<glyph unicode="&#xe65d;" d="M206.493 129.606c-26.592 0-48.231-21.678-48.231-48.244 0-26.586 21.639-48.238 48.231-48.238 26.652 0 48.277 21.652 48.277 48.238-0.007 26.56-21.632 48.244-48.277 48.244zM395.264 129.606c-26.632 0-48.277-21.678-48.277-48.244 0-26.592 21.639-48.277 48.277-48.277s48.277 21.678 48.277 48.277c-0.007 26.56-21.646 48.244-48.277 48.244zM449.281 134.507h-278.5c-6.037 0-11.435 5.648-13.564 11.289l-94.571 253.245h-40.176c-7.995 0-14.47 5.224-14.47 13.227 0 7.995 6.474 13.227 14.47 13.227h50.169c6.037 0 11.434-5.641 13.544-11.289l94.591-253.245h268.501c8.002 0 14.476-5.224 14.476-13.227 0.007-7.995-6.461-13.227-14.469-13.227zM482.084 385.813h-358.74c0 0 65.036-175.524 66.133-178.772 4.9-14.523 11.421-19.628 23.662-19.628h240.037c0 0 22.843 83.031 48.264 159.917 0.84 2.553 2.56 12.004 2.56 14.291 0 12.447-9.457 24.192-21.916 24.192z" />
<glyph unicode="&#xe65e;" d="M171.019 41.979c9.298-9.339 24.569-9.339 33.906 0l292.065 292.072c9.344 9.338 9.344 24.601 0 33.9l-50.883 50.876c-9.305 9.319-24.582 9.345-33.9 0l-207.281-207.302c-9.339-9.358-24.615-9.358-33.906 0l-71.219 71.252c-9.371 9.305-24.569 9.305-33.906 0l-50.916-50.89c-9.305-9.319-9.305-24.602 0-33.913l156.042-155.995z" />
<glyph unicode="&#xe65f;" d="M438.872 425.493h-365.744c-35.923 0-65.128-30.143-65.128-64.804v-157.563c0-34.661 29.204-62.007 65.128-62.007h191.046l99.531-99.173c7.486-7.479 14.642-5.615 14.642 4.795v94.379h60.538c35.923 0 65.115 27.353 65.115 62.013v157.563c0 34.66-29.204 64.797-65.128 64.797zM94.9 227.093c-10.82 0-19.596 6.091-19.596 16.533s8.776 16.533 19.596 16.533h149.343c10.82 0 19.596-6.091 19.596-16.533s-8.776-16.533-19.596-16.533h-149.343zM417.108 299.84h-322.208c-10.82 0-19.596 9.404-19.596 19.847s8.776 19.833 19.596 19.833h322.208c10.82 0 19.596-9.397 19.596-19.833 0-10.442-8.776-19.847-19.596-19.847z" />
<glyph unicode="&#xe660;" d="M475.94 45.498c5.356 0 6.997 9.185 6.997 14.529v84.697l-16.467 93.189h28.721c5.119 0 7.493 9.371 7.493 14.496v24.8c-0.007 5.132-2.368 5.099-7.5 5.099h-43.264l-33.755 86.899c-4.094 9.821-10.383 24.278-28.986 29.562 0 0-53.469 16.533-131.572 16.533-84.968 0-138.1-15.753-138.1-15.753-16.817-6.342-22.195-13.663-29.025-30.474l-32.121-86.767h-38.489c-4.828 0-10.541 0.285-10.541-4.549v-25.892c0-4.834 5.707-13.954 10.541-13.954h27.055l-12.922-98.010v-80.015c0-5.337 4.861-14.397 10.211-14.397h61.961c5.356 0 6.752 9.060 6.752 14.397v25.084h291.072v-25.077c0-5.337 2.572-14.358 7.929-14.358zM120.513 359.096c1.991 4.88 3.043 6.726 3.373 7.183 0.403 0.284 1.852 1.25 5.826 2.811 7.288 1.997 55.433 14.437 127.901 14.437 71.827 0 121.877-14.503 122.314-14.635l0.212-0.053 0.219-0.059c3.333-0.946 4.577-2.037 7.929-10.052l31.889-76.423h-328.339l28.675 76.794zM117.814 176.964c-17.962 0-32.531 14.596-32.531 32.538 0 17.982 14.569 32.531 32.531 32.531 17.969 0 32.517-14.549 32.517-32.531 0-17.942-14.549-32.538-32.517-32.538zM380.132 207.273c0 17.988 14.543 32.531 32.538 32.531 17.975 0 32.538-14.543 32.538-32.531 0-17.942-14.563-32.538-32.538-32.538-17.995 0-32.538 14.596-32.538 32.538z" />
<glyph unicode="&#xe661;" d="M41.067 339.52h26.453c14.609 0 26.453 11.845 26.453 26.453s-11.844 26.453-26.453 26.453h-26.453c-14.609 0-26.453-11.845-26.453-26.453s11.845-26.453 26.453-26.453zM93.973 101.44c0 14.608-11.844 26.453-26.453 26.453h-26.453c-14.609 0-26.453-11.844-26.453-26.453s11.845-26.453 26.453-26.453h26.453c14.609 0 26.453 11.844 26.453 26.453zM457.707 478.4h-363.733c-21.904 0-39.68-17.77-39.68-39.68v-6.613h13.227c36.465 0 66.133-29.667 66.133-66.133s-29.668-66.133-66.133-66.133h-13.227v-132.267h13.227c36.466 0 66.133-29.668 66.133-66.133s-29.668-66.133-66.133-66.133h-13.227v-13.227c0-21.904 17.776-39.68 39.68-39.68h363.733c21.916 0 39.68 17.776 39.68 39.68v416.64c0 21.91-17.764 39.68-39.68 39.68zM294.92 397.089c35.779 0 64.883-29.827 64.883-66.477 0-36.664-29.092-66.477-64.884-66.477-35.752 0-64.87 29.813-64.87 66.477 0 36.651 29.118 66.477 64.87 66.477zM400.396 217.94l-17.724-113.016c-2.592-17.644-13.2-29.938-29.529-29.938h-116.349c-16.302 0-26.903 12.294-29.516 29.938l-17.724 112.803c-1.938 12.969 5.827 23.028 29.516 29.635l22.227 5.965c14.451-12.704 33.172-20.416 53.667-20.475 20.508 0.060 39.237 7.81 53.654 20.514l22.214-5.912c23.748-6.6 31.5-16.547 29.562-29.516z" />
<glyph unicode="&#xe662;" d="M252.448-17.593c14.562 0 26.467 10.562 26.467 23.457l-8.822 86.046c0 12.909-3.082 23.457-17.644 23.457-14.543 0-17.625-10.548-17.625-23.457l-8.815-86.046c0-12.896 11.897-23.457 26.44-23.457zM354.426 117.14c-28.649-15.561-47.623-41.975-54.652-71.377 28.483-10.112 60.969-8.564 89.617 6.997 28.649 15.555 47.636 41.981 54.666 71.365-28.471 10.112-60.981 8.577-89.63-6.983zM427.907 328.284c-0.119 42.134-34.37 76.206-76.503 76.093-9.51-0.026-18.596-1.799-26.983-4.993 0.039 0.966 0.067 1.931 0.067 2.909-0.119 42.14-34.389 76.212-76.503 76.106-42.14-0.106-76.212-34.363-76.126-76.496 0.020-1.403 0.066-2.804 0.139-4.18-8.671 3.38-18.081 5.251-27.961 5.224-42.127-0.112-76.192-34.363-76.093-76.503 0.093-35.394 24.251-65.069 56.934-73.62-10.74-13.194-17.168-30.038-17.121-48.364 0.1-42.14 34.356-76.192 76.496-76.106 27.128 0.079 50.903 14.312 64.375 35.685 13.676-20.805 37.226-34.515 63.977-34.449 42.147 0.125 76.219 34.37 76.106 76.51-0.039 18.326-6.548 35.131-17.36 48.271 32.637 8.717 56.649 38.523 56.557 73.911zM256.82 186.659c-3.002 0-5.959 0.357-8.888 0.887-2.936-0.529-5.886-0.887-8.895-0.887-46.472 0-84.776 63.462-90.226 145.375 12.942-1.435 35.488-7.083 55.829-24.112 11.262 39.052 43.225 67.595 43.225 67.595s32.001-28.583 43.244-67.681c20.369 17.103 42.96 22.75 55.929 24.192-5.456-81.912-43.767-145.368-90.219-145.368z" />
</font>
</defs>
</svg>
